<svg xmlns="http://www.w3.org/2000/svg" xmlns:svg="http://www.w3.org/2000/svg" xmlns:xlink="http://www.w3.org/1999/xlink" id="Layer_1" x="0" y="0" enable-background="new 0 0 595.2 595.2" version="1.1" viewBox="0 0 595.2 595.2" xml:space="preserve"><path id="color_x5F_1" fill="#0984E3" d="M557.423,390.943c-0.133,0.165-11.709,14.281-39.723,29.137	c-4.931,2.615-10.361,5.252-16.338,7.841c-0.077,0.034-0.157,0.05-0.236,0.05c-0.229,0-0.449-0.135-0.546-0.359	c-0.131-0.302,0.008-0.652,0.31-0.782c6.359-2.754,12.097-5.562,17.264-8.337c27.037-14.523,38.212-28.134,38.343-28.296	c0.205-0.257,0.58-0.297,0.837-0.091C557.588,390.312,557.629,390.687,557.423,390.943z M91.926,422.633	c-0.118-0.308-0.463-0.462-0.769-0.343c-14.693,5.624-27.558,12.318-36.592,17.574c-7.812,4.546-12.76,8.017-13.528,8.785	c-0.232,0.232-0.232,0.609,0,0.842c0.116,0.116,0.269,0.175,0.421,0.175s0.305-0.059,0.421-0.175	c0.717-0.717,5.591-4.098,13.218-8.532c9.048-5.26,21.974-12.002,36.486-17.558C91.89,423.284,92.043,422.94,91.926,422.633z M276.272,446.807c-3.474-0.7-7.003-1.466-10.491-2.277c-0.321-0.075-0.641,0.125-0.714,0.445c-0.075,0.32,0.125,0.64,0.445,0.715	c3.499,0.813,7.04,1.582,10.525,2.285c0.04,0.008,0.079,0.012,0.118,0.012c0.278,0,0.526-0.195,0.583-0.479	C276.803,447.186,276.594,446.872,276.272,446.807z M514.311,523.431c0,0.663-0.537,1.2-1.2,1.2H61.315c-0.663,0-1.2-0.537-1.2-1.2	s0.537-1.2,1.2-1.2h53.539h13.674l-5.164-61.139c-0.523-0.18-0.829-0.297-0.85-0.305c-0.25-0.099-0.404-0.353-0.376-0.62	c0.011-0.105,1.112-10.845,1.843-38.113l-4.397-7.038c-4.915,1.034-9.964,2.336-15.157,3.938c-0.313,0.1-0.647-0.078-0.745-0.393	c-0.097-0.314,0.079-0.647,0.394-0.744c5.078-1.567,10.02-2.848,14.837-3.876l-1.483-2.374c-0.164,0.038-0.319,0.078-0.463,0.118	c-0.267,0.077-0.549-0.04-0.686-0.282l-4.904-8.674c-0.094-0.167-0.103-0.368-0.024-0.543l0.617-1.358l-4.13-8.756	c-0.045-0.095-0.064-0.2-0.056-0.305c0.55-6.741,0.808-14.585,1.057-22.17c0.5-15.235,1.017-30.988,3.943-38.795	c0.02-0.052,0.045-0.099,0.076-0.142c0.448-1.441,1.102-2.432,1.996-2.93l15.405-8.572l1.307-5.212l-0.637-11.88	c-0.907-0.86-4.815-4.696-8.423-10.138c-0.233-0.351-0.465-0.709-0.694-1.073c-0.009-0.014-0.018-0.029-0.027-0.044	c-0.354-0.562-0.703-1.139-1.043-1.73c-0.044-0.076-0.085-0.156-0.128-0.233c-0.304-0.535-0.604-1.078-0.891-1.634	c-0.076-0.148-0.146-0.302-0.221-0.451c-0.249-0.494-0.496-0.991-0.727-1.499c-0.108-0.238-0.203-0.485-0.307-0.726	c-0.186-0.432-0.376-0.861-0.546-1.302c-0.142-0.367-0.263-0.742-0.393-1.114c-0.114-0.327-0.239-0.65-0.344-0.982	c-0.224-0.711-0.424-1.431-0.597-2.158c-2.759-11.649,4.217-18.121,5.452-19.158c0.017-0.069,0.038-0.151,0.064-0.246	c0.29-1.044,1.217-3.587,3.741-5.552c0.918-0.715,2.046-1.353,3.432-1.814c5.651-1.883,31.459-3.309,34.406,0.007	c0.548,0.616,0.773,1.347,0.676,2.169c-0.001,0.012,0.001,0.023-0.001,0.036c0,0.002-0.001,0.004-0.001,0.007	c-0.023,0.177-0.065,0.355-0.117,0.533c-0.018,0.06-0.042,0.12-0.062,0.181c-0.042,0.122-0.087,0.244-0.141,0.366	c-0.03,0.068-0.062,0.136-0.096,0.205c-0.057,0.117-0.119,0.233-0.185,0.35c-0.038,0.066-0.074,0.132-0.115,0.198	c-0.077,0.126-0.16,0.252-0.246,0.376c-0.036,0.053-0.07,0.105-0.107,0.158c-0.126,0.175-0.258,0.348-0.397,0.518	c-0.025,0.031-0.053,0.061-0.078,0.092c-0.117,0.141-0.238,0.281-0.362,0.418c-0.051,0.057-0.103,0.111-0.155,0.167	c-0.104,0.112-0.209,0.222-0.315,0.33c-0.054,0.055-0.108,0.109-0.163,0.163c-0.11,0.109-0.221,0.216-0.332,0.321	c-0.048,0.046-0.096,0.091-0.145,0.136c-0.137,0.126-0.273,0.249-0.408,0.368c-0.02,0.017-0.04,0.036-0.059,0.053	c-0.162,0.142-0.322,0.277-0.477,0.406c-0.012,0.01-0.024,0.019-0.036,0.03c-0.139,0.115-0.275,0.224-0.404,0.327	c-0.03,0.024-0.058,0.045-0.087,0.068c-0.115,0.09-0.225,0.176-0.329,0.254c-0.021,0.016-0.041,0.031-0.062,0.047	c-0.117,0.088-0.228,0.171-0.326,0.243c-0.001,0.001-0.002,0.002-0.004,0.003c-0.022,0.016-0.047,0.035-0.068,0.05	c1.422,1.956,5.969,8.343,6.346,10.529c0.363,2.107,0.44,4.756,0.455,5.453l6.313,10.052c0.574,0.915,0.452,1.67,0.248,2.144	c-0.551,1.279-2.281,1.945-3.051,2.184c-0.046,0.532-0.057,1.749-0.067,2.932c-0.032,3.668-0.081,9.21-1.015,11.845	c-0.253,0.714-0.757,1.229-1.5,1.529c-2.736,1.109-8.213-1.103-10.576-2.171l1.243,7.321l5.172,3.953l22.418,6.214	c0.126,0.035,0.237,0.11,0.316,0.214l39.734,51.944l8.437,6.946c0.086,0.07,0.139,0.165,0.175,0.267l42.023,27.354	c1.17-0.043,7.104-0.243,9.757-0.112c0.616-0.879,2.553-3.451,4.569-4.123c2.082-0.694,6.795-1.368,7.659-1.487l45.027-28.421	l8.143-6.704l32.945-39.41c0.078-0.094,0.183-0.161,0.3-0.193l21.711-6.02l5-3.82l1.199-7.05c-2.31,1.041-7.588,3.155-10.228,2.089	c-0.725-0.294-1.217-0.796-1.464-1.493c-0.905-2.555-0.952-7.923-0.983-11.476c-0.011-1.139-0.021-2.31-0.064-2.83	c-0.754-0.236-2.422-0.884-2.955-2.122c-0.199-0.462-0.319-1.201,0.242-2.094l6.111-9.732c0.014-0.668,0.089-3.13,0.421-5.145	c-0.45-1.673-4.49-17.295-0.849-24.213c3.668-6.975,21.357-1.637,24.081-0.766c1.017-0.804,4.675-3.07,11.096-0.436	c7.069,2.9,20.781,17.045,19.984,26.603c-0.169,2.035-0.51,4.192-0.87,6.476c-1.248,7.903-2.662,16.861,1.568,27.296	c0.722,1.779,1.455,3.489,2.174,5.164c4.842,11.285,9.023,21.03,4.141,39.258c-1.754,6.548-3.917,11.711-6.464,15.495	c0.002,0.063,0.004,0.127,0.006,0.191c0.241,7.347,0.491,14.944,1.023,21.473c0.009,0.104-0.01,0.21-0.055,0.305l-3.997,8.474	l0.593,1.308c0.08,0.175,0.07,0.376-0.023,0.543l-4.749,8.402c-0.137,0.242-0.42,0.358-0.687,0.282	c-0.079-0.022-0.227-0.064-0.428-0.123l-6.654,10.637c0.724,6.462,1.635,12.972,2.491,18.582	c14.226-3.109,27.691-6.941,40.286-11.498c0.306-0.113,0.649,0.047,0.762,0.357c0.112,0.309-0.048,0.65-0.357,0.762	c-12.665,4.583-26.205,8.435-40.509,11.558c1.33,8.611,2.48,14.828,2.503,14.954c0.052,0.277-0.098,0.554-0.357,0.663	c-0.02,0.008-0.249,0.102-0.655,0.257l-8.189,60.874h27.971h46.133C513.773,522.231,514.311,522.768,514.311,523.431z M448.495,414.728c-1.133-0.348-2.661-0.842-4.019-1.363c-0.765-0.293-1.478-0.594-2.033-0.883	c-0.139,0.903-0.271,1.815-0.396,2.737c0.082,1.141,0.183,2.311,0.286,3.485c0.148,1.678,0.308,3.374,0.491,5.091L448.495,414.728z M454.355,406.199l-0.106-0.234c-0.104,0.06-0.225,0.084-0.354,0.076c-1.645-0.158-3.74-0.845-5.701-1.667	c-1.47-0.615-2.867-1.303-3.934-1.912c-0.588,2.823-1.136,5.743-1.62,8.761c0.483,0.3,1.307,0.658,2.277,1.028	c1.566,0.596,3.519,1.221,5.072,1.673L454.355,406.199z M456.854,375.816c-0.539,0.683-1.095,1.3-1.666,1.868	c-1.759,1.753-3.667,2.964-5.721,3.617c-0.151,0.572-0.299,1.134-0.452,1.713c-1.485,5.602-3.089,11.647-4.495,18.211	c1.093,0.65,2.634,1.431,4.255,2.104c1.653,0.686,3.389,1.26,4.819,1.466l4.229-8.964	C457.329,389.713,457.082,382.691,456.854,375.816z M412.579,310.587c0.201-0.101,0.443-0.078,0.625,0.056	c0.181,0.135,0.271,0.359,0.233,0.582l-0.9,5.296l-0.404,2.379c0.064-0.003,0.142-0.007,0.213-0.011	c0.261-0.013,0.567-0.029,0.916-0.046c3.704-8.236,5.359-16.504,5.596-17.753c-0.254-0.66-1.299-3.353-2.893-7.264	c-0.89-2.183-1.95-4.741-3.144-7.548c-2.627-6.173-3.186-12.157-3.279-15.254l-5.215,8.512c-0.365,2.214-0.408,5.118-0.409,5.147	c-0.001,0.11-0.033,0.218-0.092,0.311l-6.2,9.874c-0.308,0.49-0.236,0.794-0.156,0.981c0.366,0.849,2.046,1.442,2.465,1.525	c0.619,0.124,0.622,0.408,0.652,3.891c0.031,3.473,0.077,8.721,0.915,11.086c0.131,0.369,0.38,0.617,0.783,0.781	c0.344,0.139,0.772,0.197,1.248,0.203C406.276,313.371,410.813,311.463,412.579,310.587z M407.803,323.054	c0.432,0.019,0.866,0.03,1.299,0.046c0.666,0.025,1.333,0.051,1.998,0.07c0.565-1.017,1.097-2.053,1.594-3.097	c-0.267,0.013-0.494,0.025-0.679,0.034c-0.16,0.008-0.29,0.015-0.382,0.02L407.803,323.054z M351.964,369.255	c0.724,4.629,5.628,7.813,9.965,10.629c0.467,0.303,0.928,0.602,1.377,0.898l17.276-10.331c0.011-0.007,0.021-0.014,0.032-0.02	l8.855-5.295c0.283-0.17,0.653-0.077,0.822,0.207c0.17,0.284,0.077,0.652-0.207,0.822l-8.5,5.083l5.153,23.362	c0.021,0.099,0.019,0.202-0.011,0.299l-13.757,46.492c8.9,7.156,19.535,13.499,26.906,17.566c0.075,0.041,0.151,0.079,0.226,0.12	c3.578,1.77,7.168,3.261,10.542,4.227c0.594,0.17,1.183,0.329,1.761,0.464c12.833,3.001,26.807-0.933,32.426-2.848	c0.959-0.327,1.682-0.596,2.107-0.761c-0.537-2.956-3.377-18.881-5.116-34.48c-0.006-0.027-0.009-0.056-0.01-0.083	c-0.392-3.524-0.728-7.029-0.968-10.364c-0.003-0.041-0.001-0.083,0.004-0.124c0.164-1.202,0.339-2.389,0.522-3.561	c-0.016-0.115,0.002-0.234,0.055-0.343c0.122-0.763,0.261-1.497,0.39-2.247c0.444-2.577,0.918-5.102,1.433-7.533	c0.004-0.029,0.01-0.058,0.019-0.087c1.43-6.731,3.07-12.918,4.588-18.641c0.096-0.36,0.187-0.708,0.281-1.065	c-0.817,0.161-1.641,0.253-2.471,0.253c-11.359,0.001-23.642-14.369-30.483-22.373l-0.786-0.92	c-8.41-9.81-9.906-23.169-3.932-34.249c-0.915-0.028-1.828-0.072-2.742-0.112c-0.508-0.022-1.018-0.035-1.523-0.063l-21.548,5.975	L351.964,369.255z M343.725,376.115c0.061,0.892,0.341,3.75,1.561,7.05c1.258,3.403,7.349,5.993,8.7,6.532l9.763-5.924l-0.926-1.872	c-0.502-0.333-1.021-0.67-1.547-1.012c-4.326-2.809-9.192-5.967-10.349-10.703L343.725,376.115z M286.872,409.551	c1.913,0.452,3.739,1.86,3.822,1.925c0.098,0.076,0.165,0.176,0.201,0.284c0.03,0.09,0.039,0.188,0.022,0.287	c-0.007,0.046-0.195,1.146-1.102,3.325c-0.656,1.576-1.552,3.603-1.976,4.553c1.395,0.676,3.867,2.065,4.055,4.084	c0.585,0.224,0.621,0.196,1.363-0.382c0.898-0.7,1.189-0.752,1.957-0.659c0.251,0.03,0.564,0.068,1.057,0.068	c0.729,0,0.87-0.135,1.15-0.403c0.264-0.253,0.625-0.6,1.401-0.841c1.408-0.44,1.662-0.521,2.431-1.896	c0.728-1.302,3.83-9.192,4.727-11.485c-0.104-0.078-0.185-0.191-0.22-0.328c-0.084-0.32,0.107-0.647,0.429-0.731	c0.278-0.073,27.976-7.342,36.151-11.43c5.629-2.814,8.771-4.653,10.191-5.532c-2.35-1.036-7.149-3.499-8.371-6.808	c-1.056-2.858-1.438-5.359-1.575-6.695l-44.307,27.966c-0.039,0.025-0.081,0.047-0.126,0.063c-0.045,0.017-0.091,0.027-0.137,0.032	c-0.29,0.04-5.466,0.757-7.558,1.454C289.161,406.832,287.721,408.438,286.872,409.551z M288.126,416.286	c-0.874,0.356-2.047,0.8-3.185,1.115c0.515,0.407,0.969,0.867,1.416,1.318c0.162,0.163,0.324,0.328,0.49,0.489	C287.162,418.499,287.653,417.387,288.126,416.286z M233.679,383.543c-0.152,1.406-0.552,3.914-1.61,6.775	c-1.326,3.587-6.739,6.215-8.993,7.175c2.04,1.163,8.477,4.79,15.296,8.198c8.174,4.088,34.243,10.714,34.506,10.78	c0.109,0.028,0.208,0.086,0.287,0.168c0.022,0.023,2.255,2.36,3.426,3.396c0.787,0.696,4.038,1.144,5.98,1.411	c0.681,0.094,1.273,0.175,1.688,0.252c1.398,0.257,2.479,1.074,3.434,1.795c0.352,0.267,0.692,0.524,1.033,0.739	c0.157,0.1,0.313,0.202,0.465,0.303c0.007,0.005,0.015,0.01,0.022,0.015c0.011,0.007,0.023,0.015,0.034,0.022	c0.377,0.249,1.003,0.657,1.169,0.591c0.001,0,0.119-0.068,0.232-0.487c0.34-1.26-0.949-2.574-3.834-3.907	c-0.031-0.014-0.062-0.03-0.091-0.049c-0.026-0.018-0.05-0.036-0.073-0.057c-0.404-0.349-0.778-0.726-1.148-1.1	c-0.729-0.736-1.418-1.434-2.315-1.864c-2.722,0.166-6.9-0.55-7.652-0.842c-0.309-0.121-0.461-0.469-0.341-0.777	s0.467-0.458,0.777-0.342c0.666,0.26,4.774,0.938,7.23,0.762c0.036-0.007,0.064-0.012,0.11-0.008c0.321-0.027,0.61-0.069,0.858-0.13	c1.822-0.445,3.958-1.37,4.628-1.669c0.5-1.228,0.745-2.058,0.856-2.49c-0.621-0.432-2.089-1.364-3.437-1.558	c-0.112-0.016-0.248-0.029-0.405-0.042c-0.028,0-0.057-0.002-0.085-0.006c-2.553-0.175-10.04,0.103-10.121,0.105	c-0.119,0.006-0.246-0.029-0.35-0.097L233.679,383.543z M286.969,424.451c-0.18-0.136-0.36-0.272-0.544-0.406	c0.059,0.29,0.192,0.555,0.47,0.647c0.191,0.063,0.373,0.097,0.541,0.108C287.282,424.688,287.126,424.57,286.969,424.451z M225.089,376.462c-1.178,4.899-6.209,8.165-10.683,11.069c-0.545,0.354-1.082,0.701-1.601,1.047l-0.965,1.952l10.102,6.131	c1.38-0.55,7.698-3.231,9.001-6.759c1.265-3.421,1.552-6.383,1.613-7.293L225.089,376.462z M147.927,313.179	c-1.945-0.048-3.936-0.074-5.667-0.047c-3.388,0.057-6.203,0.544-7.957,0.937c-0.759,0.17-1.315,0.32-1.632,0.412l-1.071,4.27	c0.623-0.138,1.251-0.253,1.878-0.371c4.392-0.827,8.864-1.185,13.311-1.373c2.273-0.096,4.54-0.154,6.783-0.207	c2.344-0.055,4.752-0.11,7.136-0.215l-4-3.058C155.87,313.483,152.008,313.28,147.927,313.179z M157.899,261.206	c-0.844-0.115-3.834-0.464-6.571-0.063c-2.347,0.345-4.813,1.626-5.949,2.277l4.959,4.959c0.166,0.166,0.219,0.414,0.138,0.634	c-0.003,0.008-0.301,0.825-1.062,3.773c-0.754,2.921-0.38,9.184-0.376,9.247c0.017,0.278-0.16,0.531-0.427,0.611	c-0.269,0.079-0.554-0.035-0.693-0.277c-0.026-0.046-2.688-4.654-5.509-5.837c-1.553-0.651-3.056-0.619-3.828,0.08	c-0.806,0.732-0.903,2.185-0.28,4.201c0.106,0.342,0.223,0.671,0.347,0.989c1.734,4.462,5.065,6.618,5.101,6.641	c0.206,0.131,0.312,0.373,0.269,0.612l-1.67,9.334c-0.039,0.22-0.197,0.399-0.409,0.466l-8.201,2.599l-1.61,0.51l0.604,11.253	c0.414-0.113,1.007-0.259,1.724-0.411c1.822-0.387,4.53-0.819,7.786-0.873c1.81-0.031,3.899-0.004,5.925,0.048	c3.403,0.087,6.626,0.245,8.041,0.319l-1.35-7.948c-0.025-0.144,0.02-0.278,0.092-0.399c0.04-0.066,0.077-0.135,0.141-0.183	c0.18-0.135,0.421-0.156,0.625-0.056c1.797,0.89,6.359,2.815,9.212,2.84c0.549,0.005,1.042-0.053,1.432-0.211	c0.421-0.171,0.682-0.431,0.819-0.817c0.867-2.446,0.915-7.868,0.946-11.455c0.032-3.577,0.034-3.869,0.657-3.994	c0.435-0.086,2.178-0.702,2.559-1.586c0.085-0.197,0.16-0.518-0.162-1.031l-6.402-10.194c-0.059-0.093-0.09-0.201-0.092-0.311	c0-0.031-0.044-3.133-0.44-5.435C163.935,269.734,159.691,263.652,157.899,261.206z M113.167,400.552	c0.005,0.01,0.01,0.021,0.015,0.031l0.189,0.4c1.177-0.132,2.267-0.356,3.302-0.638c1.422-0.387,2.722-0.897,3.856-1.561	c-0.864-5.404-1.731-10.652-2.552-15.622c-2.32-14.05-4.34-26.292-5.299-35.705c-0.33-3.245-0.536-6.158-0.583-8.687	c-1.313,8.293-1.688,19.719-2.054,30.865c-0.248,7.54-0.503,15.335-1.047,22.068L113.167,400.552z M118.431,410.13	c0.497-0.1,1.036-0.209,1.56-0.336c0.825-0.2,1.612-0.444,2.135-0.774c-0.459-3.021-0.927-6.019-1.397-8.972	c-1.103,0.6-2.329,1.08-3.66,1.447c-1.242,0.343-2.575,0.589-4.003,0.726c-0.134,0.009-0.263-0.02-0.372-0.087l-0.123,0.271	l4.527,8.007c0.151-0.036,0.307-0.071,0.468-0.105c0.013-0.004,0.027-0.007,0.041-0.009	C117.872,410.241,118.148,410.187,118.431,410.13z M123.617,419.205c-0.418-2.982-0.854-5.963-1.3-8.924	c-0.562,0.272-1.229,0.475-1.921,0.647c-0.569,0.141-1.155,0.262-1.716,0.375l4.383,7.016L123.617,419.205z M123.377,459.827	c0.347,0.124,0.908,0.315,1.645,0.544c0.817,0.253,1.855,0.552,3.086,0.861c2.794,0.689,6.891,1.497,11.749,1.845	c0.092,0.006,0.185,0.011,0.277,0.017c0.248,0.017,0.503,0.029,0.755,0.043c3.933,0.191,8.264,0.022,12.724-0.798	c0.761-0.14,1.525-0.293,2.293-0.473c4.154-0.972,8.692-2.839,13.184-5.103c6.141-3.397,14.4-8.284,22.148-13.897	c1.529-1.107,3.033-2.244,4.501-3.402c0.249-0.196,0.498-0.391,0.744-0.589l-9.113-70.778l-8.494-7.093	c-0.254-0.213-0.288-0.591-0.076-0.846c0.212-0.253,0.591-0.289,0.845-0.076l32.734,27.337c0.448-0.296,0.907-0.594,1.372-0.896	c4.488-2.913,9.565-6.209,10.3-11.01l-39.501-51.641l-22.242-6.165c-2.897,0.156-5.852,0.225-8.71,0.292	c-1.972,0.046-3.963,0.095-5.959,0.17c-5.273,0.2-10.586,0.618-15.734,1.757c-0.302,0.067-0.607,0.121-0.908,0.193l-15.56,8.659	c-0.653,0.363-1.144,1.122-1.493,2.232c0,0.07-0.012,0.142-0.038,0.212c-0.033,0.087-0.065,0.175-0.098,0.265	c-0.329,1.279-0.499,2.956-0.539,4.959c-0.151,7.532,1.563,19.799,3.839,33.995c0.648,4.041,1.341,8.237,2.049,12.525	c0.839,5.083,1.727,10.456,2.611,15.998c0.004,0.019,0.007,0.038,0.009,0.057c0.532,3.332,1.062,6.724,1.58,10.15	c0.004,0.018,0.006,0.036,0.008,0.054c0.628,4.155,1.238,8.359,1.811,12.567c0.011,0.069,0.009,0.14-0.003,0.207	C124.531,446.276,123.591,457.5,123.377,459.827z M377.661,522.231l-4.856-67.524c-7.321,0.346-14.515,0.52-21.595,0.52	c-23.248,0-45.273-1.87-66.575-5.627c-0.324-0.057-0.54-0.365-0.483-0.689c0.058-0.324,0.365-0.543,0.69-0.482	c27.693,4.883,56.618,6.568,87.877,5.09l-0.808-11.238c-0.02-0.016-0.048-0.039-0.053-0.042c-0.189-0.152-0.269-0.404-0.199-0.638	l13.873-46.882l-5.033-22.82l-16.428,9.823l0.995,2.014c0.138,0.279,0.039,0.617-0.227,0.778l-10.485,6.362	c-0.136,0.081-0.294,0.095-0.445,0.06c-0.847,0.559-3.981,2.534-11.033,6.059c-7.585,3.792-30.803,10.038-35.563,11.301	c-0.396,1.014-4.153,10.646-5.014,12.187c-0.955,1.71-1.51,1.951-3.12,2.454c-0.506,0.158-0.701,0.346-0.928,0.563	c-0.436,0.417-0.858,0.736-1.98,0.736c-0.564,0-0.933-0.044-1.201-0.077c-0.47-0.056-0.47-0.057-1.074,0.415	c-1.046,0.817-1.46,0.918-2.262,0.651c-0.193,0.56-0.487,0.907-0.894,1.062c-0.149,0.056-0.299,0.081-0.45,0.081	c-0.5,0-1.008-0.278-1.533-0.616c-0.464,0.191-1.323,0.421-2.341,0.08c-1.175-0.393-1.397-1.642-1.327-2.561	c-0.362-0.179-0.742-0.317-1.147-0.393c-0.402-0.074-0.976-0.152-1.635-0.243c-3.038-0.418-5.632-0.835-6.611-1.701	c-1.063-0.94-2.891-2.833-3.379-3.341c-2.455-0.625-26.546-6.81-34.581-10.828c-8.248-4.123-15.962-8.577-16.039-8.621	c-0.13-0.075-0.215-0.194-0.26-0.325l-10.789-6.548c-0.266-0.161-0.365-0.499-0.227-0.778l1.071-2.168l-22.865-19.095l6.872,53.377	c3.311,1.144,6.659,2.321,10.054,3.514c15.744,5.533,32.023,11.254,51.059,16.181c0.318,0.082,0.509,0.407,0.427,0.726	c-0.069,0.268-0.311,0.446-0.576,0.446c-0.049,0-0.1-0.007-0.149-0.02c-19.084-4.939-35.388-10.669-51.155-16.21	c-3.203-1.126-6.362-2.234-9.489-3.317l1.948,15.133c0,0.003-0.001,0.005-0.001,0.007c0,0.003,0.003,0.005,0.003,0.007l2.449,23.863	c0.005,0.049,0.004,0.098-0.002,0.146l-8.331,59.148H377.661z M166.296,296.475c0.012,0.001,0.024,0.001,0.037,0.001	c0.315,0,0.579-0.246,0.598-0.564c0.02-0.331-0.231-0.615-0.563-0.635c-2.555-0.155-6.005-1.767-6.678-2.404	c-0.241-0.228-0.621-0.217-0.848,0.023c-0.228,0.241-0.218,0.621,0.023,0.848C159.858,294.685,163.661,296.316,166.296,296.475z M408.723,300.089c-0.649,0.615-3.984,2.174-6.456,2.323c-0.331,0.02-0.583,0.304-0.563,0.635c0.02,0.318,0.283,0.563,0.598,0.563	c0.013,0,0.024,0,0.037-0.001c2.557-0.154,6.247-1.737,7.21-2.649c0.24-0.228,0.25-0.607,0.022-0.849	C409.344,299.872,408.964,299.86,408.723,300.089z M355.682,152.88c-0.105-0.187-0.104-0.415,0.007-0.599	c0.156-0.263,3.932-6.417,13.509-5.854c3.159,0.186,6.079,0.515,8.656,0.805c3.965,0.447,8.068,0.91,8.486,0.071	c0.184-0.368-0.228-1.333-0.558-2.107c-0.546-1.282-1.165-2.734-0.442-3.828c0.545-0.824,1.676-1.208,3.559-1.208	c1.948,0,3.787,0.137,5.264,0.248c1.66,0.124,3.723,0.277,4.048-0.024c-0.014-0.005-0.027-0.217-0.397-0.749	c-0.721-1.034-0.508-1.727-0.202-2.127c1.041-1.363,4.76-0.966,6.522-0.623c-0.534-1.528-1.39-4.848,1.079-9.648	c0.658-1.279,1.539-2.658,2.741-4.143c7.903-9.764,22.27-13.836,34.163-9.682c9.469,3.306,10.706,9.982,10.818,12.555	c1.541-0.675,4.804-1.686,8.222-0.118c2.77,1.269,4.392,4.891,5.112,6.937c0.881,2.501,1.45,5.677,0.854,6.971	c0.268,0.104,0.882,0.185,1.35,0.247c1.829,0.241,4.595,0.606,5.159,3.242c0.47,2.193-0.376,3.641-0.882,4.506	c-0.054,0.092-0.114,0.195-0.164,0.287c0.08,0.012,0.186,0.023,0.322,0.033c0.924,0.062,2.217-0.028,3.583-0.125	c2.445-0.174,5.215-0.371,7.063,0.245c1.172,0.391,2.061,1.164,2.568,2.234c0.473,0.996,0.521,2.089,0.414,2.372	c-0.088,0.231-0.31,0.384-0.557,0.384h-46.444h-83.336C355.985,153.181,355.787,153.066,355.682,152.88z M357.401,151.99h80.765	h47.193c-0.104-0.749-0.524-2.117-2.183-2.67c-1.622-0.542-4.267-0.353-6.602-0.187c-1.407,0.1-2.736,0.195-3.749,0.125	c-0.598-0.041-1.186-0.144-1.434-0.613c-0.259-0.489,0.014-0.955,0.329-1.495c0.473-0.808,1.119-1.914,0.746-3.656	c-0.359-1.678-2.093-2.04-4.151-2.311c-1.155-0.152-1.99-0.263-2.317-0.879c-0.113-0.212-0.198-0.564,0.037-1.034	c0.309-0.617,0.171-3.076-0.891-6.088c-1.119-3.179-2.755-5.457-4.485-6.25c-4.033-1.849-7.984,0.492-8.024,0.515	c-0.194,0.118-0.438,0.114-0.631-0.009c-0.19-0.123-0.295-0.345-0.269-0.57c0.04-0.347,0.871-8.529-10.013-12.33	c-11.438-3.995-25.247-0.078-32.845,9.307c-1.189,1.469-2.046,2.813-2.674,4.046c-2.382,4.673-1.297,7.663-0.821,8.954	c0.187,0.505,0.334,0.904,0.006,1.235c-0.114,0.116-0.371,0.29-0.808,0.133c-1.182-0.422-5.399-0.799-6.025,0.02	c-0.128,0.167,0.12,0.562,0.232,0.723c0.38,0.544,0.839,1.347,0.45,2.028c-0.547,0.957-2.185,0.834-5.165,0.612	c-1.534-0.115-3.271-0.245-5.176-0.245c-1.752,0-2.362,0.367-2.565,0.674c-0.369,0.56,0.116,1.699,0.545,2.705	c0.492,1.155,0.957,2.246,0.526,3.106c-0.791,1.581-4.137,1.205-9.685,0.58c-2.562-0.289-5.465-0.615-8.593-0.799	C362.461,147.221,358.812,150.383,357.401,151.99z M46.677,238.526c-0.106-0.272-0.064-1.333,0.392-2.306	c0.495-1.056,1.365-1.817,2.517-2.201c1.801-0.6,4.498-0.408,6.877-0.239c1.327,0.094,2.579,0.182,3.482,0.122	c0.12-0.008,0.214-0.019,0.289-0.029c-0.046-0.083-0.1-0.175-0.148-0.257c-0.493-0.844-1.318-2.255-0.859-4.396	c0.552-2.575,3.248-2.931,5.032-3.166c0.444-0.059,1.026-0.135,1.292-0.232c-0.554-1.353-0.005-4.382,0.838-6.775	c0.702-1.993,2.282-5.521,4.981-6.758c3.312-1.52,6.478-0.552,7.989,0.105c0.116-2.523,1.342-8.994,10.532-12.203	c4.661-1.627,9.709-1.937,14.583-1.129c7.229,1.198,14.07,4.877,18.664,10.551c5.537,6.839,4.389,11.501,3.728,13.403	c1.734-0.333,5.322-0.706,6.333,0.616c0.3,0.393,0.51,1.075-0.196,2.088c-0.386,0.554-0.37,0.748-0.369,0.75	c0.288,0.245,2.293,0.096,3.905-0.024c1.438-0.107,3.226-0.241,5.122-0.241c1.837,0,2.941,0.375,3.475,1.182	c0.708,1.071,0.104,2.488-0.429,3.738c-0.32,0.751-0.718,1.685-0.542,2.037c0.403,0.804,4.387,0.355,8.239-0.078	c2.506-0.282,5.346-0.602,8.419-0.783c9.308-0.555,13.002,5.446,13.155,5.702c0.11,0.184,0.112,0.413,0.006,0.599	c-0.105,0.186-0.303,0.301-0.518,0.301h-61.809H47.232C46.987,238.904,46.767,238.754,46.677,238.526z M47.853,237.714h63.84h60.58	c-1.366-1.575-4.873-4.613-11.382-4.224c-3.042,0.179-5.865,0.497-8.356,0.777c-5.585,0.629-8.663,0.977-9.438-0.573	c-0.422-0.844,0.032-1.908,0.512-3.036c0.415-0.974,0.886-2.079,0.531-2.615c-0.195-0.296-0.785-0.648-2.481-0.648	c-1.852,0-3.542,0.126-5.033,0.238c-2.905,0.215-4.504,0.336-5.04-0.604c-0.383-0.671,0.067-1.458,0.438-1.99	c0.084-0.121,0.348-0.525,0.227-0.684c-0.59-0.772-4.726-0.412-5.842-0.014c-0.434,0.154-0.688-0.018-0.803-0.133	c-0.326-0.329-0.181-0.721,0.002-1.218c0.584-1.584,2.137-5.794-3.397-12.629c-4.307-5.32-10.671-8.814-17.43-10.048	c-4.832-0.882-9.865-0.617-14.498,1.001c-10.573,3.692-9.767,11.64-9.728,11.976c0.027,0.226-0.078,0.447-0.269,0.57	c-0.19,0.123-0.435,0.127-0.63,0.009c-0.039-0.023-3.877-2.295-7.79-0.5c-1.68,0.77-3.267,2.983-4.355,6.071	c-1.017,2.886-1.157,5.325-0.866,5.908c0.232,0.463,0.147,0.811,0.036,1.021c-0.323,0.607-1.138,0.715-2.267,0.864	c-1.996,0.263-3.676,0.613-4.024,2.235c-0.362,1.688,0.265,2.761,0.723,3.544c0.297,0.507,0.577,0.987,0.321,1.47	c-0.245,0.463-0.821,0.564-1.408,0.604c-0.983,0.07-2.278-0.023-3.648-0.122c-2.269-0.161-4.84-0.344-6.416,0.181	C48.371,235.679,47.958,236.987,47.853,237.714z M486.775,314.637c1.646,0,2.86,0.229,3.747,0.396	c1.646,0.309,1.781,0.336,2.196-0.991c0.291-0.924,0.792-1.563,1.489-1.898c1.2-0.576,2.605-0.07,3.415,0.244	c0.046-0.178,0.097-0.412,0.144-0.629c0.382-1.771,1.177-5.455,4.868-10.016c5.354-6.616,12.636-8.56,21.057-5.619	c0.003,0.001,0.006,0.002,0.009,0.003c6.348,2.22,7.434,6.614,7.588,8.596c1.174-0.468,3.342-1.018,5.604,0.02	c1.979,0.906,3.128,3.464,3.637,4.908c0.565,1.605,0.983,3.7,0.66,4.767c0.199,0.044,0.486,0.082,0.718,0.112	c1.237,0.163,3.31,0.437,3.728,2.389c0.331,1.544-0.257,2.609-0.602,3.201c0.623,0.035,1.484-0.026,2.392-0.09	c1.711-0.121,3.647-0.26,4.961,0.179c0.864,0.288,1.518,0.859,1.891,1.652c0.331,0.704,0.39,1.511,0.285,1.779	c-0.088,0.229-0.308,0.381-0.554,0.381h-26.415H464.13c-0.214,0-0.412-0.115-0.518-0.302s-0.104-0.415,0.007-0.6	s2.784-4.523,9.523-4.143c2.381,0.141,4.278,0.384,5.663,0.562c1.942,0.249,3.224,0.414,3.438-0.01	c0.108-0.218,0.148-0.616,0.191-1.038C482.579,317.05,482.822,314.637,486.775,314.637z M483.619,318.61	c-0.054,0.534-0.104,1.038-0.312,1.451c-0.589,1.182-1.947,1.007-4.653,0.658c-1.444-0.186-3.242-0.416-5.582-0.553	c-4.2-0.262-6.604,1.526-7.704,2.663h62.126h25.866c-0.111-0.487-0.434-1.186-1.351-1.492c-1.088-0.362-2.901-0.234-4.499-0.12	c-0.982,0.069-1.911,0.134-2.624,0.086c-0.467-0.032-0.929-0.117-1.142-0.521c-0.227-0.429,0.006-0.828,0.231-1.213	c0.312-0.534,0.739-1.265,0.495-2.401c-0.225-1.049-1.316-1.273-2.72-1.459c-0.822-0.108-1.472-0.194-1.743-0.704	c-0.098-0.186-0.174-0.489,0.024-0.885c0.17-0.341,0.106-1.994-0.626-4.074c-0.76-2.154-1.856-3.693-3.01-4.222	c-2.698-1.234-5.36,0.332-5.386,0.347c-0.194,0.117-0.439,0.114-0.632-0.01c-0.191-0.124-0.295-0.346-0.268-0.571	c0.026-0.225,0.518-5.404-6.145-8.076c-0.222-0.089-0.43-0.183-0.668-0.266c-8.015-2.797-14.655-1.035-19.738,5.245	c-3.513,4.339-4.268,7.836-4.63,9.517c-0.189,0.877-0.294,1.359-0.702,1.587c-0.197,0.11-0.428,0.127-0.653,0.047l-0.284-0.108	c-0.623-0.242-1.784-0.692-2.567-0.318c-0.395,0.189-0.679,0.576-0.868,1.183c-0.734,2.336-1.918,2.111-3.554,1.804	c-0.888-0.167-1.992-0.375-3.526-0.375C483.899,315.828,483.763,317.18,483.619,318.61z"/><path id="color_x5F_w" fill="#FFF" d="M286.55,167.172v-12.251c0-0.663,0.537-1.2,1.2-1.2s1.2,0.537,1.2,1.2v12.251	c0,0.663-0.537,1.2-1.2,1.2S286.55,167.834,286.55,167.172z M367.189,179.972c0.203,0.133,0.432,0.197,0.657,0.197	c0.391,0,0.774-0.191,1.005-0.542l3.487-5.318c0.363-0.554,0.208-1.298-0.346-1.662c-0.555-0.363-1.298-0.209-1.662,0.346	l-3.486,5.318C366.48,178.865,366.636,179.609,367.189,179.972z M320.974,191.032c0.121,0.038,0.242,0.056,0.362,0.056	c0.51,0,0.982-0.327,1.144-0.838l5.803-18.329c0.2-0.632-0.149-1.306-0.781-1.506c-0.635-0.201-1.307,0.15-1.506,0.782	l-5.803,18.329C319.992,190.158,320.342,190.832,320.974,191.032z M178.386,208.223c0.228,0.198,0.508,0.295,0.788,0.295	c0.335,0,0.668-0.139,0.905-0.412c0.435-0.5,0.383-1.258-0.117-1.693l-9.945-8.661c-0.5-0.436-1.257-0.383-1.693,0.117	c-0.435,0.5-0.383,1.258,0.117,1.693L178.386,208.223z M216.999,241.852c0.228,0.198,0.508,0.295,0.788,0.295	c0.335,0,0.668-0.139,0.905-0.412c0.435-0.5,0.383-1.258-0.117-1.693l-30.921-26.93c-0.5-0.436-1.257-0.383-1.693,0.117	c-0.435,0.5-0.383,1.258,0.117,1.693L216.999,241.852z M308.347,233.679c0.116,0.035,0.234,0.052,0.35,0.052	c0.515,0,0.99-0.333,1.147-0.851l9.703-31.834c0.193-0.634-0.164-1.304-0.798-1.498c-0.636-0.191-1.305,0.165-1.497,0.798	l-9.703,31.834C307.355,232.815,307.713,233.485,308.347,233.679z M246.763,172.398c0.159,0.516,0.634,0.847,1.146,0.847	c0.117,0,0.236-0.017,0.354-0.053c0.633-0.195,0.989-0.866,0.794-1.5l-3.64-11.833c-0.195-0.633-0.866-0.99-1.5-0.794	c-0.633,0.195-0.989,0.866-0.794,1.5L246.763,172.398z M209.876,186.401c0.231,0.348,0.612,0.537,1.001,0.537	c0.228,0,0.458-0.065,0.662-0.2c0.552-0.366,0.703-1.11,0.337-1.663l-4.745-7.159c-0.366-0.552-1.111-0.703-1.663-0.337	c-0.552,0.366-0.703,1.11-0.337,1.663L209.876,186.401z M246.198,241.197c0.231,0.348,0.612,0.537,1.001,0.537	c0.228,0,0.458-0.065,0.662-0.2c0.552-0.366,0.703-1.111,0.337-1.663l-30.883-46.59c-0.366-0.553-1.111-0.703-1.663-0.337	c-0.552,0.366-0.703,1.111-0.337,1.663L246.198,241.197z M287.75,231.649c0.663,0,1.2-0.537,1.2-1.2v-53.802	c0-0.663-0.537-1.2-1.2-1.2s-1.2,0.537-1.2,1.2v53.802C286.55,231.111,287.087,231.649,287.75,231.649z M260.945,218.501	c0.159,0.516,0.634,0.847,1.146,0.847c0.117,0,0.236-0.017,0.354-0.053c0.633-0.195,0.989-0.866,0.794-1.5l-11.367-36.951	c-0.195-0.633-0.867-0.989-1.5-0.794c-0.633,0.195-0.989,0.866-0.794,1.5L260.945,218.501z M321.925,249.735	c0.202,0.13,0.428,0.193,0.651,0.193c0.394,0,0.778-0.193,1.008-0.548l36.387-56.214c0.36-0.556,0.201-1.299-0.354-1.659	c-0.558-0.36-1.299-0.201-1.659,0.355l-36.387,56.214C321.21,248.632,321.369,249.375,321.925,249.735z M344.429,250.884	c0.237,0.269,0.567,0.405,0.899,0.405c0.282,0,0.566-0.099,0.794-0.3l30.442-26.881c0.497-0.438,0.544-1.197,0.105-1.694	c-0.438-0.497-1.197-0.543-1.693-0.105l-30.442,26.881C344.037,249.629,343.99,250.387,344.429,250.884z M388.088,213.217	c0.282,0,0.566-0.099,0.794-0.3l9.876-8.72c0.497-0.438,0.544-1.197,0.105-1.693c-0.438-0.498-1.198-0.544-1.693-0.105l-9.876,8.72	c-0.497,0.438-0.544,1.197-0.105,1.693C387.426,213.081,387.756,213.217,388.088,213.217z M113.182,400.583l0.189,0.4	c1.177-0.132,2.267-0.356,3.302-0.638c-2.002-5.815-3.678-10.967-3.868-12.441c-0.375-2.908-0.216-27.791-0.127-40.446	c-0.33-3.245-0.536-6.158-0.583-8.687c-1.313,8.293-1.688,19.719-2.054,30.865c-0.248,7.54-0.503,15.335-1.047,22.068l4.172,8.847	C113.172,400.562,113.177,400.572,113.182,400.583z M457.823,395.832c-0.494-6.12-0.742-13.141-0.969-20.016	c-0.539,0.683-1.095,1.3-1.666,1.868c-0.061,4.007-0.265,13.457-0.851,15.996c-0.564,2.442-3.331,5.792-5.562,9.648	c1.653,0.686,3.389,1.26,4.819,1.466L457.823,395.832z M132.127,301.964l0.604,11.253c0.414-0.113,1.007-0.259,1.724-0.411	c0.018-0.209,0.032-0.409,0.037-0.589c0.05-1.763-0.555-8.378-0.755-10.763L132.127,301.964z M286.425,424.045	c0.059,0.29,0.192,0.555,0.47,0.647c0.191,0.063,0.373,0.097,0.541,0.108c-0.154-0.113-0.31-0.23-0.467-0.35	C286.79,424.316,286.609,424.179,286.425,424.045z M149.988,301.75c-0.698-0.188-1.586,7.941-1.822,10.231	c3.403,0.087,6.626,0.245,8.041,0.319l-1.35-7.948c-0.025-0.144,0.02-0.278,0.092-0.399	C152.649,302.896,150.475,301.881,149.988,301.75z M441.813,425.607c-0.392-3.524-0.728-7.029-0.968-10.364	c-0.003-0.041-0.001-0.083,0.004-0.124c0.164-1.202,0.339-2.389,0.522-3.561c-0.016-0.115,0.002-0.234,0.055-0.343	c0.122-0.763,0.261-1.497,0.39-2.247c-0.229,0.381-3.297,5.488-3.478,6.119c-0.175,0.612,5.696,40.439,6.494,45.843	c0.959-0.327,1.682-0.596,2.107-0.761c-0.537-2.956-3.377-18.881-5.116-34.48C441.816,425.662,441.813,425.634,441.813,425.607z M415.964,293.826c0.054,1.139,0.092,2.669,0.029,4.233c-0.125,3.125-2.5,7.844-5.219,10.594c-2.719,2.75-7.375,4.656-7.375,4.656	s0.054,0.012,0.133,0.027c-0.476-0.006-0.904-0.064-1.248-0.203c-0.403-0.164-0.652-0.412-0.783-0.781	c-0.838-2.365-0.884-7.613-0.915-11.086c-0.03-3.482-0.033-3.767-0.652-3.891c-0.419-0.083-2.099-0.677-2.465-1.525	c-0.08-0.187-0.151-0.491,0.156-0.981l6.2-9.874c0.059-0.093,0.091-0.201,0.092-0.311c0.001-0.03,0.043-2.933,0.409-5.147	l5.215-8.512c0.094,3.097,0.652,9.081,3.279,15.254C414.014,289.085,415.074,291.643,415.964,293.826z M409.571,300.111	c-0.228-0.239-0.607-0.251-0.849-0.022c-0.649,0.615-3.984,2.174-6.456,2.323c-0.331,0.02-0.583,0.304-0.563,0.635	c0.02,0.318,0.283,0.563,0.598,0.563c0.013,0,0.024,0,0.037-0.001c2.557-0.154,6.247-1.737,7.21-2.649	C409.789,300.733,409.799,300.353,409.571,300.111z M412.346,318.889c0.131-0.755,0.183-1.589,0.191-2.368l-0.404,2.379	C412.197,318.896,412.275,318.892,412.346,318.889z M160.708,316.586l-4-3.058c-0.839-0.046-4.7-0.248-8.781-0.349l-1.138,3.829	c2.273-0.096,4.54-0.154,6.783-0.207C155.916,316.746,158.325,316.691,160.708,316.586z M286.846,419.209	c0.316-0.71,0.807-1.822,1.28-2.923c-0.874,0.356-2.047,0.8-3.185,1.115c0.515,0.407,0.969,0.867,1.416,1.318	C286.518,418.883,286.681,419.048,286.846,419.209z M442.332,418.704c0.148,1.678,0.308,3.374,0.491,5.091l5.673-9.067	c-1.133-0.348-2.661-0.842-4.019-1.363C443.607,415.552,442.817,417.509,442.332,418.704z M361.275,380.89	c-4.326-2.809-9.192-5.967-10.349-10.703l-7.202,5.929c0.061,0.892,0.341,3.75,1.561,7.05c1.258,3.403,7.349,5.993,8.7,6.532	l9.763-5.924l-0.926-1.872C362.32,381.568,361.802,381.232,361.275,380.89z M131.601,318.751c0.623-0.138,1.251-0.253,1.878-0.371	c0.207-0.925,0.593-2.724,0.825-4.311c-0.759,0.17-1.315,0.32-1.632,0.412L131.601,318.751z M115.44,328.78	c-0.653,0.363-1.144,1.122-1.493,2.232c0,0.07-0.012,0.142-0.038,0.212c-0.033,0.087-0.065,0.175-0.098,0.265	c-0.329,1.279-0.499,2.956-0.539,4.959c0.648-2.32,2.026-5.222,4.907-7.295c3.94-2.835,10.776-7.307,13.728-9.225	c-0.302,0.067-0.607,0.121-0.908,0.193L115.44,328.78z M407.803,323.054c0.432,0.019,0.866,0.03,1.299,0.046	c1.429-1.186,2.57-2.198,2.913-2.992c-0.16,0.008-0.29,0.015-0.382,0.02L407.803,323.054z M344.16,383.581	c-1.056-2.858-1.438-5.359-1.575-6.695l-44.307,27.966c-0.039,0.025-0.081,0.047-0.126,0.063c-0.045,0.017-0.091,0.027-0.137,0.032	c-0.29,0.04-5.466,0.757-7.558,1.454c-1.297,0.432-2.737,2.037-3.586,3.15c1.913,0.452,3.739,1.86,3.822,1.925	c0.098,0.076,0.165,0.176,0.201,0.284c0.03,0.09,0.039,0.188,0.022,0.287c-0.007,0.046-0.195,1.146-1.102,3.325	c-0.656,1.576-1.552,3.603-1.976,4.553c1.395,0.676,3.867,2.065,4.055,4.084c0.585,0.224,0.621,0.196,1.363-0.382	c0.898-0.7,1.189-0.752,1.957-0.659c0.251,0.03,0.564,0.068,1.057,0.068c0.729,0,0.87-0.135,1.15-0.403	c0.264-0.253,0.625-0.6,1.401-0.841c1.408-0.44,1.662-0.521,2.431-1.896c0.728-1.302,3.83-9.192,4.727-11.485	c-0.104-0.078-0.185-0.191-0.22-0.328c-0.084-0.32,0.107-0.647,0.429-0.731c0.278-0.073,27.976-7.342,36.151-11.43	c5.629-2.814,8.771-4.653,10.191-5.532C350.181,389.354,345.383,386.89,344.16,383.581z M286.815,420.769	c-0.031-0.014-0.062-0.03-0.091-0.049c-0.026-0.018-0.05-0.036-0.073-0.057c-0.404-0.349-0.778-0.726-1.148-1.1	c-0.729-0.736-1.418-1.434-2.315-1.864c-2.722,0.166-6.9-0.55-7.652-0.842c-0.309-0.121-0.461-0.469-0.341-0.777	s0.467-0.458,0.777-0.342c0.666,0.26,4.774,0.938,7.23,0.762c0.036-0.007,0.064-0.012,0.11-0.008c0.321-0.027,0.61-0.069,0.858-0.13	c1.822-0.445,3.958-1.37,4.628-1.669c0.5-1.228,0.745-2.058,0.856-2.49c-0.621-0.432-2.089-1.364-3.437-1.558	c-0.112-0.016-0.248-0.029-0.405-0.042c-0.028,0-0.057-0.002-0.085-0.006c-2.553-0.175-10.04,0.103-10.121,0.105	c-0.119,0.006-0.246-0.029-0.35-0.097l-41.577-27.063c-0.152,1.406-0.552,3.914-1.61,6.775c-1.326,3.587-6.739,6.215-8.993,7.175	c2.04,1.163,8.477,4.79,15.296,8.198c8.174,4.088,34.243,10.714,34.506,10.78c0.109,0.028,0.208,0.086,0.287,0.168	c0.022,0.023,2.255,2.36,3.426,3.396c0.787,0.696,4.038,1.144,5.98,1.411c0.681,0.094,1.273,0.175,1.688,0.252	c1.398,0.257,2.479,1.074,3.434,1.795c0.352,0.267,0.692,0.524,1.033,0.739c0.157,0.1,0.313,0.202,0.465,0.303	c0.007,0.005,0.015,0.01,0.022,0.015c0.011,0.007,0.023,0.015,0.034,0.022c0.377,0.249,1.003,0.657,1.169,0.591	c0.001,0,0.119-0.068,0.232-0.487C290.989,423.416,289.7,422.102,286.815,420.769z M125.804,406.53	c-0.73-3.377-5.935-24.775-8.692-36.087c0.648,4.041,1.341,8.237,2.049,12.525c0.839,5.083,1.727,10.456,2.611,15.998	c0.004,0.019,0.007,0.038,0.009,0.057c0.532,3.332,1.062,6.724,1.58,10.15c0.004,0.018,0.006,0.036,0.008,0.054	c0.628,4.155,1.238,8.359,1.811,12.567c0.011,0.069,0.009,0.14-0.003,0.207c-0.644,24.275-1.584,35.499-1.798,37.826	c0.347,0.124,0.908,0.315,1.645,0.544l2.032-38.84c0,0,2-3.876,0.75-6.375C126.554,412.655,126.804,411.155,125.804,406.53z M117.069,401.496c-1.242,0.343-2.575,0.589-4.003,0.726c-0.134,0.009-0.263-0.02-0.372-0.087l-0.123,0.271l4.527,8.007	c0.151-0.036,0.307-0.071,0.468-0.105c0.013-0.004,0.027-0.007,0.041-0.009c0.264-0.057,0.54-0.111,0.822-0.168	c0.497-0.1,1.036-0.209,1.56-0.336C119.041,407.132,118.028,404.265,117.069,401.496z M230.943,389.902	c1.265-3.421,1.552-6.383,1.613-7.293l-7.467-6.147c-1.178,4.899-6.209,8.165-10.683,11.069c-0.545,0.354-1.082,0.701-1.601,1.047	l-0.965,1.952l10.102,6.131C223.322,396.111,229.64,393.43,230.943,389.902z M147.051,291.063c-0.437-3.169-5.144-4.095-8.402-9.262	c-0.124-0.319-0.241-0.647-0.347-0.989c-0.624-2.017-0.526-3.469,0.28-4.201c0.772-0.699,2.275-0.731,3.828-0.08	c2.821,1.183,5.482,5.791,5.509,5.837c0.139,0.242,0.424,0.355,0.693,0.277c0.267-0.08,0.444-0.333,0.427-0.611	c-0.004-0.063-0.378-6.326,0.376-9.247c0.761-2.948,1.059-3.765,1.062-3.773c0.082-0.22,0.028-0.468-0.138-0.634l-4.959-4.959	c1.136-0.651,3.603-1.932,5.949-2.277c2.737-0.401,5.728-0.052,6.571,0.063c1.792,2.446,6.036,8.528,6.344,10.315	c0.396,2.302,0.44,5.403,0.44,5.435c0.001,0.11,0.033,0.218,0.092,0.311l6.402,10.194c0.322,0.513,0.247,0.834,0.162,1.031	c-0.381,0.884-2.124,1.5-2.559,1.586c-0.623,0.125-0.625,0.417-0.657,3.994c-0.032,3.587-0.08,9.009-0.946,11.455	c-0.137,0.387-0.397,0.646-0.819,0.817c-0.39,0.158-0.883,0.216-1.432,0.211c-1.234-0.466-3.556-1.363-5.876-2.866	C155.676,301.5,147.551,294.688,147.051,291.063z M158.865,293.745c0.993,0.94,4.796,2.571,7.431,2.73	c0.012,0.001,0.024,0.001,0.037,0.001c0.315,0,0.579-0.246,0.598-0.564c0.02-0.331-0.231-0.615-0.563-0.635	c-2.555-0.155-6.005-1.767-6.678-2.404c-0.241-0.228-0.621-0.217-0.848,0.023C158.614,293.137,158.625,293.517,158.865,293.745z M453.896,406.041c-1.645-0.158-3.74-0.845-5.701-1.667c-0.51,0.952-0.976,1.93-1.357,2.932c-0.603,1.587-1.272,3.302-1.921,4.944	c1.566,0.596,3.519,1.221,5.072,1.673l4.366-7.725l-0.106-0.234C454.145,406.025,454.024,406.049,453.896,406.041z M178.878,361.005	c-0.254-0.213-0.288-0.591-0.076-0.846c0.212-0.253,0.591-0.289,0.845-0.076l32.734,27.337c0.448-0.296,0.907-0.594,1.372-0.896	c4.488-2.913,9.565-6.209,10.3-11.01l-39.501-51.641l-22.242-6.165c-2.897,0.156-5.852,0.225-8.71,0.292	c-1.972,0.046-3.963,0.095-5.959,0.17c3.385,1.929,13.687,8.516,8.848,14.828c-5.75,7.5-6.25,21.25-7,35.75	c-0.75,14.5,11.251,30.999,10.251,35.499c-1,4.5-7.75,8.75-3.75,10c4,1.25,12.5-3.25,8.75,3	c-3.55,5.917-10.439,41.148-11.126,45.091c0.761-0.14,1.525-0.293,2.293-0.473c4.154-0.972,8.692-2.839,13.184-5.103	c6.141-3.397,14.4-8.284,22.148-13.897c2.009-1.473,3.564-2.669,4.501-3.402c0.249-0.196,0.498-0.391,0.744-0.589l-9.113-70.778	L178.878,361.005z M409.181,408.029c-1-3.75-5-3-1.75-15.5c3.25-12.5-0.75-25.25-5.75-34.75c-5-9.5-2-22.375,0.125-27	c1.111-2.419,3.639-4.647,5.917-6.538c-0.508-0.022-1.018-0.035-1.523-0.063l-21.548,5.975l-32.688,39.103	c0.724,4.629,5.628,7.813,9.965,10.629c0.467,0.303,0.928,0.602,1.377,0.898l17.276-10.331c0.011-0.007,0.021-0.014,0.032-0.02	l8.855-5.295c0.283-0.17,0.653-0.077,0.822,0.207c0.17,0.284,0.077,0.652-0.207,0.822l-8.5,5.083l5.153,23.362	c0.021,0.099,0.019,0.202-0.011,0.299l-13.757,46.492c8.9,7.156,19.535,13.499,26.906,17.566c0.075,0.041,0.151,0.079,0.226,0.12	c3.578,1.77,7.168,3.261,10.542,4.227c-0.553-5.158-3.983-37.291-4.213-43.036C406.181,414.029,410.181,411.779,409.181,408.029z M118.68,411.303l4.383,7.016c-0.667-1.833-1.615-4.451-2.667-7.391C119.827,411.069,119.241,411.19,118.68,411.303z"/><path id="color_x5F_3" fill="#8b5099" d="M164.74,417.249c-3.55,5.917-10.439,41.148-11.126,45.091	c-4.46,0.82-8.791,0.989-12.724,0.798c-0.252-0.014-0.507-0.026-0.755-0.043c-0.092-0.006-0.185-0.011-0.277-0.017	c-4.858-0.348-8.955-1.156-11.749-1.845c-1.231-0.309-2.269-0.608-3.086-0.861l2.032-38.84c0,0,2-3.876,0.75-6.375	c-1.25-2.5-1-4-2-8.625c-0.73-3.377-5.935-24.775-8.692-36.087c-2.276-14.196-3.991-26.463-3.839-33.995	c0.648-2.32,2.026-5.222,4.907-7.295c3.94-2.835,10.776-7.307,13.728-9.225c5.148-1.139,10.46-1.557,15.734-1.757	c3.385,1.929,13.687,8.516,8.848,14.828c-5.75,7.5-6.25,21.25-7,35.75c-0.75,14.5,11.251,30.999,10.251,35.499	c-1,4.5-7.75,8.75-3.75,10C159.99,415.499,168.49,410.999,164.74,417.249z M117.976,383.163c-2.32-14.05-4.34-26.292-5.299-35.705	c-0.089,12.655-0.248,37.538,0.127,40.446c0.19,1.474,1.866,6.626,3.868,12.441c1.422-0.387,2.722-0.897,3.856-1.561	C119.664,393.381,118.797,388.133,117.976,383.163z M141.938,298.855l-8.201,2.599c0.199,2.385,0.805,9,0.755,10.763	c-0.005,0.18-0.019,0.381-0.037,0.589c1.822-0.387,4.53-0.819,7.786-0.873c1.81-0.031,3.899-0.004,5.925,0.048	c0.236-2.289,1.124-10.419,1.822-10.231c0.487,0.131,2.661,1.146,4.961,2.202c0.04-0.066,0.077-0.135,0.141-0.183	c0.18-0.135,0.421-0.156,0.625-0.056c1.797,0.89,6.359,2.815,9.212,2.84c-1.234-0.466-3.556-1.363-5.876-2.866	c-3.375-2.188-11.5-9-12-12.625c-0.437-3.169-5.144-4.095-8.402-9.262c1.734,4.462,5.065,6.618,5.101,6.641	c0.206,0.131,0.312,0.373,0.269,0.612l-1.67,9.334C142.309,298.608,142.151,298.787,141.938,298.855z M442.64,411.223	c0.483,0.3,1.307,0.658,2.277,1.028c0.648-1.642,1.318-3.358,1.921-4.944c0.38-1.001,0.846-1.98,1.357-2.932	c-1.47-0.615-2.867-1.303-3.934-1.912C443.672,405.285,443.124,408.205,442.64,411.223z M449.468,381.302	c-0.151,0.572-0.299,1.134-0.452,1.713c-1.485,5.602-3.089,11.647-4.495,18.211c1.093,0.65,2.634,1.431,4.255,2.104	c2.231-3.856,4.998-7.206,5.562-9.648c0.586-2.54,0.79-11.989,0.851-15.996C453.429,379.438,451.522,380.648,449.468,381.302z M412.579,310.587c0.201-0.101,0.443-0.078,0.625,0.056c0.181,0.135,0.271,0.359,0.233,0.582l-0.9,5.296	c-0.008,0.779-0.06,1.613-0.191,2.368c0.261-0.013,0.567-0.029,0.916-0.046c3.704-8.236,5.359-16.504,5.596-17.753	c-0.254-0.66-1.299-3.353-2.893-7.264c0.054,1.139,0.092,2.669,0.029,4.233c-0.125,3.125-2.5,7.844-5.219,10.594	c-2.719,2.75-7.375,4.656-7.375,4.656s0.054,0.012,0.133,0.027C406.276,313.371,410.813,311.463,412.579,310.587z M409.102,323.1	c0.666,0.025,1.333,0.051,1.998,0.07c0.565-1.017,1.097-2.053,1.594-3.097c-0.267,0.013-0.494,0.025-0.679,0.034	C411.672,320.901,410.53,321.914,409.102,323.1z M147.927,313.179c-1.945-0.048-3.936-0.074-5.667-0.047	c-3.388,0.057-6.203,0.544-7.957,0.937c-0.232,1.587-0.618,3.386-0.825,4.311c4.392-0.827,8.864-1.185,13.311-1.373L147.927,313.179	z M120.729,400.049c-1.103,0.6-2.329,1.08-3.66,1.447c0.959,2.768,1.972,5.636,2.922,8.298c0.825-0.2,1.612-0.444,2.135-0.774	C121.667,405.999,121.199,403.002,120.729,400.049z M438.338,415.087c0.181-0.632,3.249-5.739,3.478-6.119	c0.444-2.577,0.918-5.102,1.433-7.533c0.004-0.029,0.01-0.058,0.019-0.087c1.43-6.731,3.07-12.918,4.588-18.641	c0.096-0.36,0.187-0.708,0.281-1.065c-0.817,0.161-1.641,0.253-2.471,0.253c-11.359,0.001-23.642-14.369-30.483-22.373l-0.786-0.92	c-8.41-9.81-9.906-23.169-3.932-34.249c-0.915-0.028-1.828-0.072-2.742-0.112c-2.278,1.891-4.806,4.119-5.917,6.538	c-2.125,4.625-5.125,17.5-0.125,27c5,9.5,9,22.25,5.75,34.75c-3.25,12.5,0.75,11.75,1.75,15.5c1,3.75-3,6-2.75,12.25	c0.23,5.745,3.66,37.878,4.213,43.036c0.594,0.17,1.183,0.329,1.761,0.464c12.833,3.001,26.807-0.933,32.426-2.848	C444.034,455.526,438.163,415.699,438.338,415.087z M444.476,413.365c-0.765-0.293-1.478-0.594-2.033-0.883	c-0.139,0.903-0.271,1.815-0.396,2.737c0.082,1.141,0.183,2.311,0.286,3.485C442.817,417.509,443.607,415.552,444.476,413.365z M120.396,410.928c1.052,2.939,2,5.558,2.667,7.391l0.554,0.886c-0.418-2.982-0.854-5.963-1.3-8.924	C121.755,410.554,121.088,410.757,120.396,410.928z"/><path id="color_x5F_4" fill="#00CEC9" d="M125.608,222.991c-0.183,0.497-0.328,0.889-0.002,1.218	c0.114,0.115,0.369,0.287,0.803,0.133c1.116-0.398,5.252-0.758,5.842,0.014c0.122,0.159-0.143,0.563-0.227,0.684	c-0.372,0.533-0.821,1.319-0.438,1.99c0.536,0.94,2.135,0.819,5.04,0.604c1.491-0.111,3.182-0.238,5.033-0.238	c1.697,0,2.286,0.353,2.481,0.648c0.354,0.536-0.116,1.641-0.531,2.615c-0.48,1.127-0.934,2.192-0.512,3.036	c0.774,1.549,3.853,1.202,9.438,0.573c2.491-0.28,5.314-0.599,8.356-0.777c6.509-0.389,10.016,2.649,11.382,4.224h-60.58	c0.226-9.582-1.415-20.389-5.583-32.892c-0.491-1.474-0.934-2.978-1.329-4.508c6.759,1.234,13.123,4.728,17.43,10.048	C127.745,217.197,126.193,221.407,125.608,222.991z M385.533,394.719l-13.873,46.882c-0.069,0.233,0.01,0.485,0.199,0.638	c0.004,0.003,0.033,0.026,0.053,0.042l0.808,11.238c-31.259,1.478-60.184-0.207-87.877-5.09c-0.325-0.061-0.632,0.158-0.69,0.482	c-0.057,0.324,0.159,0.633,0.483,0.689c21.302,3.757,43.327,5.627,66.575,5.627c7.08,0,14.274-0.174,21.595-0.52l4.856,67.524	H191.835l8.331-59.148c0.007-0.048,0.007-0.097,0.002-0.146l-2.449-23.863c0-0.003-0.003-0.005-0.003-0.007	c0-0.003,0.001-0.005,0.001-0.007l-1.948-15.133c3.128,1.083,6.286,2.191,9.489,3.317c15.767,5.541,32.07,11.271,51.155,16.21	c0.05,0.013,0.1,0.02,0.149,0.02c0.265,0,0.506-0.179,0.576-0.446c0.083-0.318-0.109-0.644-0.427-0.726	c-19.036-4.927-35.315-10.647-51.059-16.181c-3.395-1.193-6.743-2.369-10.054-3.514l-6.872-53.377l22.865,19.095l-1.071,2.168	c-0.138,0.279-0.039,0.617,0.227,0.778l10.789,6.548c0.045,0.131,0.13,0.25,0.26,0.325c0.077,0.044,7.791,4.498,16.039,8.621	c8.035,4.019,32.126,10.203,34.581,10.828c0.488,0.508,2.316,2.4,3.379,3.341c0.979,0.866,3.574,1.283,6.611,1.701	c0.659,0.091,1.232,0.169,1.635,0.243c0.406,0.075,0.786,0.214,1.147,0.393c-0.071,0.919,0.151,2.168,1.327,2.561	c1.019,0.341,1.877,0.111,2.341-0.08c0.525,0.338,1.033,0.616,1.533,0.616c0.151,0,0.301-0.025,0.45-0.081	c0.407-0.154,0.701-0.502,0.894-1.062c0.802,0.267,1.216,0.166,2.262-0.651c0.604-0.472,0.604-0.471,1.074-0.415	c0.269,0.033,0.637,0.077,1.201,0.077c1.122,0,1.544-0.319,1.98-0.736c0.227-0.217,0.422-0.404,0.928-0.563	c1.61-0.503,2.165-0.744,3.12-2.454c0.86-1.54,4.618-11.173,5.014-12.187c4.761-1.263,27.979-7.509,35.563-11.301	c7.052-3.525,10.186-5.5,11.033-6.059c0.151,0.034,0.309,0.021,0.445-0.06l10.485-6.362c0.266-0.161,0.364-0.499,0.227-0.778	l-0.995-2.014l16.428-9.823L385.533,394.719z M276.738,447.508c0.065-0.322-0.144-0.636-0.466-0.701	c-3.474-0.7-7.003-1.466-10.491-2.277c-0.321-0.075-0.641,0.125-0.714,0.445c-0.075,0.32,0.125,0.64,0.445,0.715	c3.499,0.813,7.04,1.582,10.525,2.285c0.04,0.008,0.079,0.012,0.118,0.012C276.433,447.986,276.681,447.791,276.738,447.508z M503.561,302.493c-3.513,4.339-4.268,7.836-4.63,9.517c-0.189,0.877-0.294,1.359-0.702,1.587c-0.197,0.11-0.428,0.127-0.653,0.047	l-0.284-0.108c-0.623-0.242-1.784-0.692-2.567-0.318c-0.395,0.189-0.679,0.576-0.868,1.183c-0.734,2.336-1.918,2.111-3.554,1.804	c-0.888-0.167-1.992-0.375-3.526-0.375c-2.876,0-3.013,1.352-3.156,2.782c-0.054,0.534-0.104,1.038-0.312,1.451	c-0.589,1.182-1.947,1.007-4.653,0.658c-1.444-0.186-3.242-0.416-5.582-0.553c-4.2-0.262-6.604,1.526-7.704,2.663h62.126	c-0.745-8.522-1.925-16.967-3.527-25.315c-0.222-0.089-0.43-0.183-0.668-0.266C515.284,294.451,508.644,296.214,503.561,302.493z M405.384,136.842c0.187,0.505,0.334,0.904,0.006,1.235c-0.114,0.116-0.371,0.29-0.808,0.133c-1.182-0.422-5.399-0.799-6.025,0.02	c-0.128,0.167,0.12,0.562,0.232,0.723c0.38,0.544,0.839,1.347,0.45,2.028c-0.547,0.957-2.185,0.834-5.165,0.612	c-1.534-0.115-3.271-0.245-5.176-0.245c-1.752,0-2.362,0.367-2.565,0.674c-0.369,0.56,0.116,1.699,0.545,2.705	c0.492,1.155,0.957,2.246,0.526,3.106c-0.791,1.581-4.137,1.205-9.685,0.58c-2.562-0.289-5.465-0.615-8.593-0.799	c-6.666-0.394-10.315,2.768-11.726,4.375h80.765c-9.869-8.535-20.528-16.588-31.962-24.102	C403.823,132.562,404.908,135.552,405.384,136.842z M500.579,427.611c0.097,0.225,0.316,0.359,0.546,0.359	c0.079,0,0.159-0.016,0.236-0.05c5.978-2.589,11.407-5.226,16.338-7.841c-9.916,34.616-26.745,69.121-50.722,102.151h-27.971	l8.189-60.874c0.405-0.155,0.635-0.249,0.655-0.257c0.26-0.109,0.409-0.386,0.357-0.663c-0.023-0.125-1.173-6.342-2.503-14.954	c14.304-3.123,27.844-6.975,40.509-11.558c0.31-0.111,0.47-0.453,0.357-0.762c-0.112-0.311-0.456-0.471-0.762-0.357	c-12.595,4.557-26.06,8.39-40.286,11.498c-0.855-5.61-1.767-12.12-2.491-18.582l6.654-10.637c0.201,0.059,0.349,0.101,0.428,0.123	c0.267,0.076,0.55-0.04,0.687-0.282l4.749-8.402c0.094-0.167,0.104-0.368,0.023-0.543l-0.593-1.308l3.997-8.474	c0.045-0.095,0.063-0.2,0.055-0.305c-0.532-6.528-0.782-14.126-1.023-21.473c-0.002-0.063-0.004-0.127-0.006-0.191	c2.548-3.784,4.711-8.947,6.464-15.495c4.883-18.228,0.701-27.973-4.141-39.258c-0.719-1.675-1.452-3.385-2.174-5.164	c-4.23-10.436-2.816-19.394-1.568-27.296c0.36-2.284,0.701-4.441,0.87-6.476c0.797-9.558-12.915-23.703-19.984-26.603	c-6.421-2.634-10.079-0.368-11.096,0.436c-2.724-0.872-20.413-6.209-24.081,0.766c-3.641,6.918,0.399,22.54,0.849,24.213	c-0.332,2.015-0.407,4.476-0.421,5.145l-6.111,9.732c-0.562,0.893-0.441,1.631-0.242,2.094c0.533,1.238,2.201,1.886,2.955,2.122	c0.044,0.521,0.054,1.691,0.064,2.83c0.031,3.553,0.078,8.921,0.983,11.476c0.247,0.697,0.739,1.199,1.464,1.493	c2.64,1.066,7.918-1.048,10.228-2.089l-1.199,7.05l-5,3.82l-21.711,6.02c-0.117,0.032-0.222,0.1-0.3,0.193l-32.945,39.41	l-8.143,6.704l-45.027,28.421c-0.863,0.119-5.577,0.793-7.659,1.487c-2.016,0.672-3.954,3.244-4.569,4.123	c-2.654-0.131-8.587,0.069-9.757,0.112l-42.023-27.354c-0.036-0.102-0.09-0.197-0.175-0.267l-8.437-6.946l-39.734-51.944	c-0.08-0.104-0.19-0.179-0.316-0.214l-22.418-6.214l-5.172-3.953l-1.243-7.321c2.363,1.068,7.84,3.28,10.576,2.171	c0.742-0.301,1.247-0.815,1.5-1.529c0.934-2.635,0.983-8.177,1.015-11.845c0.011-1.183,0.021-2.4,0.067-2.932	c0.77-0.239,2.5-0.905,3.051-2.184c0.204-0.473,0.326-1.229-0.248-2.144l-6.313-10.052c-0.014-0.697-0.092-3.345-0.455-5.453	c-0.377-2.186-4.924-8.573-6.346-10.529c0.021-0.015,0.046-0.034,0.068-0.05c0.001-0.001,0.002-0.002,0.004-0.003	c0.099-0.072,0.209-0.154,0.326-0.243c0.021-0.016,0.041-0.031,0.062-0.047c0.104-0.079,0.214-0.164,0.329-0.254	c0.029-0.023,0.057-0.045,0.087-0.068c0.13-0.103,0.265-0.211,0.404-0.327c0.012-0.01,0.024-0.019,0.036-0.03	c0.155-0.129,0.315-0.264,0.477-0.406c0.02-0.017,0.04-0.036,0.059-0.053c0.135-0.119,0.271-0.241,0.408-0.368	c0.048-0.045,0.096-0.09,0.145-0.136c0.111-0.105,0.222-0.211,0.332-0.321c0.055-0.054,0.109-0.108,0.163-0.163	c0.107-0.108,0.211-0.218,0.315-0.33c0.052-0.056,0.104-0.11,0.155-0.167c0.124-0.137,0.244-0.276,0.362-0.418	c0.026-0.031,0.053-0.061,0.078-0.092c0.139-0.17,0.271-0.343,0.397-0.518c0.038-0.052,0.071-0.105,0.107-0.158	c0.086-0.125,0.169-0.25,0.246-0.376c0.04-0.066,0.077-0.131,0.115-0.198c0.066-0.116,0.128-0.233,0.185-0.35	c0.033-0.068,0.066-0.136,0.096-0.205c0.054-0.122,0.099-0.244,0.141-0.366c0.021-0.06,0.045-0.121,0.062-0.181	c0.052-0.179,0.094-0.357,0.117-0.533c0-0.002,0.001-0.004,0.001-0.007c0.002-0.012,0-0.023,0.001-0.036	c0.097-0.823-0.128-1.553-0.676-2.169c-2.947-3.315-28.755-1.89-34.406-0.007c-1.385,0.462-2.514,1.1-3.432,1.814	c-2.523,1.965-3.451,4.508-3.741,5.552c-0.026,0.095-0.047,0.177-0.064,0.246c-1.235,1.037-8.21,7.509-5.452,19.158	c0.172,0.727,0.373,1.447,0.597,2.158c0.104,0.332,0.229,0.654,0.344,0.982c0.13,0.372,0.251,0.748,0.393,1.114	c0.17,0.441,0.36,0.87,0.546,1.302c0.104,0.241,0.199,0.488,0.307,0.726c0.231,0.509,0.478,1.005,0.727,1.499	c0.075,0.149,0.144,0.303,0.221,0.451c0.287,0.557,0.587,1.098,0.891,1.634c0.044,0.077,0.084,0.157,0.128,0.233	c0.34,0.592,0.689,1.167,1.043,1.73c0.009,0.014,0.018,0.029,0.027,0.044c3.785,6.008,8.152,10.296,9.118,11.211l0.637,11.88	l-1.307,5.212l-15.405,8.572c-0.894,0.498-1.548,1.488-1.996,2.93c-0.031,0.043-0.057,0.09-0.076,0.142	c-2.926,7.807-3.443,23.56-3.943,38.795c-0.249,7.585-0.506,15.429-1.057,22.17c-0.008,0.104,0.011,0.21,0.056,0.305l4.13,8.756	l-0.617,1.358c-0.079,0.175-0.07,0.376,0.024,0.543l4.904,8.674c0.136,0.242,0.419,0.359,0.686,0.282	c0.144-0.04,0.299-0.08,0.463-0.118l1.483,2.374c-4.817,1.028-9.759,2.309-14.837,3.876c-0.314,0.097-0.491,0.43-0.394,0.744	c0.098,0.314,0.432,0.492,0.745,0.393c5.193-1.603,10.242-2.904,15.157-3.938l4.397,7.038c-0.731,27.269-1.832,38.008-1.843,38.113	c-0.028,0.268,0.125,0.521,0.376,0.62c0.021,0.008,0.327,0.125,0.85,0.305l5.164,61.139h-13.674	c-6.743-6.543-39.295-39.32-59.758-81.271c9.048-5.26,21.974-12.002,36.486-17.558c0.307-0.117,0.46-0.462,0.343-0.769	c-0.118-0.308-0.463-0.462-0.769-0.343c-14.693,5.624-27.558,12.318-36.592,17.574c-6.54-13.599-11.786-28.136-14.456-43.041	c-15.365-85.79,69.012-95.033,71.547-157.919h61.809c0.214,0,0.412-0.115,0.518-0.301c0.106-0.187,0.104-0.416-0.006-0.599	c-0.153-0.256-3.848-6.257-13.155-5.702c-3.073,0.181-5.913,0.5-8.419,0.783c-3.852,0.433-7.836,0.882-8.239,0.078	c-0.175-0.352,0.223-1.286,0.542-2.037c0.533-1.25,1.137-2.667,0.429-3.738c-0.533-0.807-1.637-1.182-3.475-1.182	c-1.896,0-3.685,0.133-5.122,0.241c-1.611,0.121-3.617,0.27-3.905,0.024c0-0.002-0.017-0.196,0.369-0.75	c0.707-1.013,0.497-1.695,0.196-2.088c-1.011-1.322-4.598-0.95-6.333-0.616c0.661-1.902,1.809-6.564-3.728-13.403	c-4.594-5.675-11.435-9.353-18.664-10.551c-15.261-64.016,53.224-171.857,228.74-107.534c26.642,9.764,50.661,21.8,72,35.708	c-2.469,4.8-1.614,8.119-1.079,9.648c-1.763-0.344-5.481-0.741-6.522,0.623c-0.306,0.4-0.519,1.093,0.202,2.127	c0.37,0.531,0.384,0.744,0.397,0.749c-0.325,0.301-2.388,0.148-4.048,0.024c-1.477-0.11-3.315-0.248-5.264-0.248	c-1.883,0-3.014,0.384-3.559,1.208c-0.723,1.093-0.104,2.546,0.442,3.828c0.33,0.775,0.741,1.739,0.558,2.107	c-0.418,0.839-4.521,0.376-8.486-0.071c-2.577-0.29-5.497-0.619-8.656-0.805c-9.577-0.563-13.353,5.591-13.509,5.854	c-0.11,0.184-0.112,0.413-0.007,0.599c0.105,0.186,0.304,0.301,0.518,0.301h83.336c45.126,39.521,73.522,89.163,84.165,142.947	c-0.003-0.001-0.006-0.002-0.009-0.003c-8.421-2.941-15.702-0.997-21.057,5.619c-3.691,4.561-4.486,8.245-4.868,10.016	c-0.047,0.217-0.098,0.451-0.144,0.629c-0.81-0.314-2.215-0.82-3.415-0.244c-0.697,0.335-1.198,0.975-1.489,1.898	c-0.415,1.327-0.55,1.3-2.196,0.991c-0.887-0.167-2.102-0.396-3.747-0.396c-3.953,0-4.196,2.413-4.341,3.854	c-0.043,0.422-0.083,0.82-0.191,1.038c-0.214,0.424-1.495,0.259-3.438,0.01c-1.385-0.178-3.282-0.421-5.663-0.562	c-6.739-0.381-9.413,3.958-9.523,4.143s-0.112,0.413-0.007,0.6s0.304,0.302,0.518,0.302h63.463	c2.552,30.862-0.535,62.703-9.44,94.471c-5.166,2.775-10.905,5.583-17.264,8.337C500.587,426.959,500.448,427.31,500.579,427.611z M179.962,206.414l-9.945-8.661c-0.5-0.436-1.257-0.383-1.693,0.117c-0.435,0.5-0.383,1.258,0.117,1.693l9.945,8.661	c0.228,0.198,0.508,0.295,0.788,0.295c0.335,0,0.668-0.139,0.905-0.412C180.514,207.607,180.462,206.849,179.962,206.414z M367.189,179.972c0.203,0.133,0.432,0.197,0.657,0.197c0.391,0,0.774-0.191,1.005-0.542l3.487-5.318	c0.363-0.554,0.208-1.298-0.346-1.662c-0.555-0.363-1.298-0.209-1.662,0.346l-3.486,5.318	C366.48,178.865,366.636,179.609,367.189,179.972z M320.974,191.032c0.121,0.038,0.242,0.056,0.362,0.056	c0.51,0,0.982-0.327,1.144-0.838l5.803-18.329c0.2-0.632-0.149-1.306-0.781-1.506c-0.635-0.201-1.307,0.15-1.506,0.782	l-5.803,18.329C319.992,190.158,320.342,190.832,320.974,191.032z M308.347,233.679c0.116,0.035,0.234,0.052,0.35,0.052	c0.515,0,0.99-0.333,1.147-0.851l9.703-31.834c0.193-0.634-0.164-1.304-0.798-1.498c-0.636-0.191-1.305,0.165-1.497,0.798	l-9.703,31.834C307.355,232.815,307.713,233.485,308.347,233.679z M286.55,167.172c0,0.663,0.537,1.2,1.2,1.2s1.2-0.537,1.2-1.2	v-12.251c0-0.663-0.537-1.2-1.2-1.2s-1.2,0.537-1.2,1.2V167.172z M286.55,230.449c0,0.663,0.537,1.2,1.2,1.2s1.2-0.537,1.2-1.2	v-53.802c0-0.663-0.537-1.2-1.2-1.2s-1.2,0.537-1.2,1.2V230.449z M249.579,181.549l11.367,36.952	c0.159,0.516,0.634,0.847,1.146,0.847c0.117,0,0.236-0.017,0.354-0.053c0.633-0.195,0.989-0.866,0.794-1.5l-11.367-36.951	c-0.195-0.633-0.867-0.989-1.5-0.794C249.739,180.245,249.384,180.916,249.579,181.549z M243.123,160.565l3.64,11.833	c0.159,0.516,0.634,0.847,1.146,0.847c0.117,0,0.236-0.017,0.354-0.053c0.633-0.195,0.989-0.866,0.794-1.5l-3.64-11.833	c-0.195-0.633-0.866-0.99-1.5-0.794C243.284,159.26,242.928,159.931,243.123,160.565z M205.131,179.243l4.745,7.159	c0.231,0.348,0.612,0.537,1.001,0.537c0.228,0,0.458-0.065,0.662-0.2c0.552-0.366,0.703-1.11,0.337-1.663l-4.745-7.159	c-0.366-0.552-1.111-0.703-1.663-0.337C204.916,177.946,204.765,178.69,205.131,179.243z M218.575,240.042l-30.921-26.93	c-0.5-0.436-1.257-0.383-1.693,0.117c-0.435,0.5-0.383,1.258,0.117,1.693l30.921,26.93c0.228,0.198,0.508,0.295,0.788,0.295	c0.335,0,0.668-0.139,0.905-0.412C219.126,241.235,219.074,240.477,218.575,240.042z M246.198,241.197	c0.231,0.348,0.612,0.537,1.001,0.537c0.228,0,0.458-0.065,0.662-0.2c0.552-0.366,0.703-1.111,0.337-1.663l-30.883-46.59	c-0.366-0.553-1.111-0.703-1.663-0.337c-0.552,0.366-0.703,1.111-0.337,1.663L246.198,241.197z M335.213,285.823	c0-13.248-10.752-24-24-24c-12,0-18.001,6-24,18c-6-12-12-18-24-18c-13.248,0-24,10.752-24,24c0,24,24,48.001,48,72	C311.213,333.824,335.213,309.823,335.213,285.823z M359.971,193.166c0.36-0.556,0.201-1.299-0.354-1.659	c-0.558-0.36-1.299-0.201-1.659,0.355l-36.387,56.214c-0.36,0.556-0.201,1.299,0.354,1.659c0.202,0.13,0.428,0.193,0.651,0.193	c0.394,0,0.778-0.193,1.008-0.548L359.971,193.166z M376.67,222.414c-0.438-0.497-1.197-0.543-1.693-0.105l-30.442,26.881	c-0.497,0.438-0.544,1.197-0.105,1.694c0.237,0.269,0.567,0.405,0.899,0.405c0.282,0,0.566-0.099,0.794-0.3l30.442-26.881	C377.062,223.67,377.108,222.911,376.67,222.414z M398.863,202.504c-0.438-0.498-1.198-0.544-1.693-0.105l-9.876,8.72	c-0.497,0.438-0.544,1.197-0.105,1.693c0.237,0.269,0.567,0.406,0.899,0.406c0.282,0,0.566-0.099,0.794-0.3l9.876-8.72	C399.255,203.758,399.302,203,398.863,202.504z"/><path id="color_x5F_5" fill="#FFD2BB" d="M335.213,285.823c0,24-24,48-48,72c-24-24-48-48-48-72c0-13.248,10.752-24,24-24	c12,0,18,6,24,18c6-12,12-18,24-18C324.461,261.824,335.213,272.575,335.213,285.823z"/></svg>