<svg xmlns="http://www.w3.org/2000/svg" xmlns:xlink="http://www.w3.org/1999/xlink" id="Layer_1_15_" x="0" y="0" enable-background="new 0 0 595.276 595.276" version="1.1" viewBox="0 0 595.276 595.276" xml:space="preserve"><path id="color_x5F_7" fill="#9013fe" d="M240.152,248.853c1.589-2.84,4.317-4.006,4.317-4.006	c16.785,1.643,17.83,1.632,23.825,2.798c6.108,1.188,6.221,10.661,6.221,10.661s4.289,47.925,4.287,55.205	c-0.002,7.279-6.285,7.008-6.285,7.008s-1.572-0.304-3.908-0.768c5.125-0.42,4.81-6.417,4.81-6.417s-3.716-50.754-4.933-56.84	c-1.217-6.086-6.243-6.594-6.243-6.594s-14.823-1.941-18.455-2.272C242.063,247.47,240.902,248.124,240.152,248.853z M268.61,319.75	C268.61,319.75,268.61,319.75,268.61,319.75c-0.331-0.066-0.678-0.135-1.038-0.207C267.931,319.615,268.279,319.684,268.61,319.75z M305.726,412.951v-32.092c-3.536,0.896-7.687,1.009-12.491-0.269c-0.025-0.007-0.05-0.011-0.075-0.018	c-0.679-0.182-1.368-0.388-2.073-0.627c-0.021-0.007-0.042-0.016-0.063-0.023v18.557h-70.353l-2.666,14.471h-31.96l-2.798-14.471	h-23.094V271.314c-5.086-1.484-10.001-3.372-14.701-5.635v147.272h-12.916v17.296h184.575c0.39-5.979,0.778-11.744,1.164-17.296	H305.726z M291.024,149.251v26.75h-7.623c0.028,0.958,0.047,1.918,0.047,2.883c0,3.508-0.206,6.967-0.572,10.377h8.148v139.605	l3.423,4.034c1.585-2.736,6.048-10.532,11.278-20.453V134.779h-32.954c2.384,4.618,4.402,9.455,6.023,14.471H291.024z"/><path id="color_x5F_6" fill="#1acdbc" d="M222.078,352.59c0,0,5.966,9.785-0.239,25.059l-39.856-0.239	c0,0-6.205-8.114-0.477-25.297l8.592,7.876c-0.477-7.637,10.262-17.899,10.262-17.899c6.612,5.655,9.854,11.879,11.314,17.508	C214.317,356.617,217.72,354.02,222.078,352.59z M461.529,274.632c-0.02-0.046-0.039-0.093-0.059-0.139	c-0.255-0.588-0.487-1.189-0.697-1.798c-0.02-0.057-0.039-0.115-0.059-0.172c-0.207-0.614-0.394-1.235-0.561-1.86	c-0.011-0.042-0.023-0.084-0.034-0.127c-0.174-0.662-0.328-1.327-0.462-1.991c-3.986-4.449-7.415-6.471-9.886-8.262	c-8.315-6.026-26.433-8.727-26.433-8.727s-16.612,15.746-43.294,13.266c-20.723-1.925-15.845-13.398-15.845-13.398	s-15.166,2.446-22.232,6.071c-5.681,2.915-15.008,9.403-21.92,25.416c-9.277,21.49-22.6,44.81-25.599,49.988l1.341,1.58	c4.12,1.259,14.246,5.316,25.599,16.954c0.166,0.15,0.314,0.284,0.451,0.409l1.266,0.076c-2.539,27.957-5.387,65.414-8.236,114.973	c0,0,71.789,17.296,139.242,6.918c0,0-2.258-42.932-3.113-89.699c-0.246-0.284-0.486-0.586-0.723-0.896	c-0.045-0.058-0.09-0.115-0.134-0.174c-0.227-0.304-0.448-0.62-0.667-0.946c-0.045-0.068-0.09-0.136-0.135-0.204	c-0.222-0.339-0.44-0.687-0.653-1.047c-0.023-0.038-0.044-0.078-0.067-0.116c-1.186-2.028-2.234-4.365-3.157-6.859	c-0.006-0.016-0.012-0.031-0.018-0.047c-0.183-0.496-0.361-0.997-0.535-1.503c-0.004-0.013-0.009-0.025-0.013-0.038	c-2.118-6.2-3.513-13.064-4.363-18.238c-0.004-0.022-0.007-0.044-0.011-0.067c-0.065-0.399-0.127-0.785-0.186-1.163	c-0.008-0.051-0.016-0.102-0.024-0.152c-0.057-0.366-0.111-0.721-0.162-1.064c-0.006-0.039-0.011-0.076-0.017-0.115	c-0.207-1.405-0.365-2.598-0.478-3.515c-0.008-0.065-0.017-0.134-0.024-0.196c-0.021-0.173-0.039-0.325-0.057-0.475	c-0.009-0.076-0.018-0.149-0.026-0.219c-0.015-0.126-0.027-0.238-0.039-0.344c-0.009-0.079-0.016-0.147-0.024-0.214	c-0.009-0.08-0.017-0.151-0.023-0.215c-0.008-0.078-0.014-0.132-0.019-0.185c-0.003-0.032-0.006-0.059-0.008-0.081	c-0.006-0.058-0.009-0.092-0.009-0.092s0.017-0.014,0.046-0.038c0.001-0.001,0.002-0.002,0.004-0.003	c0.03-0.025,0.078-0.062,0.139-0.107c0.001,0,0.001-0.001,0.002-0.001c0.125-0.094,0.319-0.229,0.579-0.393	c0.002-0.001,0.004-0.003,0.006-0.004c0.128-0.081,0.273-0.168,0.435-0.261c0.005-0.003,0.01-0.006,0.015-0.009	c0.161-0.092,0.338-0.189,0.532-0.29c0.008-0.004,0.015-0.008,0.023-0.012c0.195-0.101,0.407-0.206,0.636-0.313	c0.009-0.004,0.017-0.008,0.025-0.012c0.236-0.11,0.489-0.222,0.762-0.336c0.002-0.001,0.003-0.002,0.005-0.002c0,0,0,0,0,0	c1.818-0.757,4.46-1.559,8.082-1.973c0.019-0.2,0.042-0.404,0.061-0.605c0.069-0.707,0.139-1.415,0.215-2.128	c0.021-0.195,0.044-0.393,0.065-0.589c0.08-0.74,0.162-1.481,0.249-2.226c0.02-0.174,0.043-0.349,0.063-0.523	c0.091-0.77,0.184-1.54,0.281-2.315c0.02-0.155,0.041-0.312,0.061-0.467c0.101-0.796,0.204-1.592,0.312-2.39	c0.017-0.126,0.035-0.252,0.052-0.378c0.112-0.827,0.226-1.654,0.344-2.481c0.018-0.127,0.037-0.254,0.055-0.38	c0.119-0.829,0.24-1.658,0.364-2.486c0.014-0.093,0.028-0.185,0.042-0.278c0.13-0.863,0.262-1.725,0.396-2.585	c0.006-0.038,0.012-0.076,0.018-0.114c3.128-19.929,7.46-38.738,8.755-44.2c0.108-0.454,0.191-0.803,0.254-1.066	c0.08-0.333,0.127-0.523,0.127-0.523C462.103,275.867,461.804,275.256,461.529,274.632z"/><path id="color_x5F_5" fill="#ffd2bb" d="M224.051,163.074c0.188,6.227-6.362,11.658-11.308,9.18	c-3.758,6.449-9.051,11.68-15.789,14.239l0.696,7.544l6.735,0.14c-0.169,5.031-0.868,9.049-13.714,10.377	c-16.192,1.674-21.108-8.331-21.108-8.331l7.044-1.74l0.349-8.1c-8.358-3.004-13.341-10.725-16.31-18.938	c-3.553-0.453-9.85-2.117-9.955-8.228c-0.095-5.548,3.714-6.753,6.384-6.92c-0.846-6.256-0.807-10.818-0.807-10.818	c-0.409-23.856,14.497-28.098,19.054-12.088c6.711,23.578,25.471,27.463,24.074,22.258c-1.821-6.787-1.614-14.631-1.614-14.631	c3.422,10.68,16.275,14.721,14.512,11.342c-1.762-3.379-2.232-10.871-2.232-10.871l9.4,11.43c-0.151,3.192-0.613,6.455-1.368,9.67	C219.677,158.223,223.891,157.751,224.051,163.074z M159.059,253.337l-3.564-2.139c-1.453-15.145-12.603-44.717-12.603-44.717	c6.163-3.429,5.43-16.371,5.79-20.213c0.36-3.841,2.5-8.104-1.512-8.667c-3.246-0.456-3.733,7.302-5.113,9.974	c-1.933,3.742-2.798,0.815-2.798,0.815s-0.777-15.498-5.448-19.509c-4.671-4.011-11.304,1.813-14.411,4.508s-3.63,16.937-1.2,24.48	c2.43,7.544,7.02,11.811,7.02,11.811s1.389,23.929,4.689,46.606c8.511,6.306,18.097,11.244,28.435,14.484	c1.035-2.337,0.805-4.513,0.805-4.513L159.059,253.337z M420.559,198.439c-0.794,1.157-8.068,11.542-8.319,3.426	c-0.526-17.042-4.261-25.63-16.878-35.406c-10.858,1.642-30.423,3.83-42.984,0.716c0,0,13.775-4.528,23.191-10.035	c-2.961-0.781-6.133-1.43-9.537-1.931c-17.693-2.606-21.11,15.05-21.11,15.05s-4.472,48.602,15.154,66.626	c3.602,3.307,7.491,5.608,11.512,7.068l0.05,4.758l-7.44,2.713c0,0-4.878,11.473,15.845,13.398	c26.682,2.479,43.294-13.266,43.294-13.266l-9.374-2.533l1.068-19.054c3.32-3.864,6.038-8.25,7.893-12.97	c0,0,12.135,1.035,12.586-16.631C435.718,192.192,425.852,190.724,420.559,198.439z M497.755,224.185	c-9.025-9.008-23.246-6.975-23.352-1.515c-0.106,5.46-3.015,21.353-5.467,30.409c0,0,0.137-11.326-1.193-17.254	c-1.33-5.928-7.258-4.598-8.485-1c-1.227,3.598-0.288,19.754-0.288,19.754s-1.422,13.176,3.465,21.877	c0,0-8.906,36.328-11.715,65.735c-8.046,0.919-11.292,3.755-11.292,3.755s3.744,38.693,16.842,41.669	c25.457,5.783,32.147-15.504,32.404-29.009c1.336-11.042,2.442-33.139-0.307-74.803c0,0,13.168-6.116,14.52-28.849	C503.624,242.553,505.197,231.612,497.755,224.185z M239.788,259.476c-0.224-1.922-0.422-3.425-0.582-4.349	c-0.072-0.419-0.112-0.817-0.138-1.206c-0.008-0.116-0.012-0.228-0.016-0.341c-0.01-0.286-0.008-0.563,0.006-0.833	c0.005-0.101,0.005-0.205,0.013-0.304c0.026-0.321,0.067-0.629,0.122-0.927c0.027-0.148,0.063-0.289,0.096-0.432	c0.036-0.15,0.073-0.299,0.116-0.443c0.049-0.168,0.099-0.334,0.157-0.494c0.022-0.06,0.047-0.117,0.07-0.176	c0.153-0.398,0.326-0.772,0.52-1.118c0,0,0,0,0-0.001c1.589-2.84,4.317-4.006,4.317-4.006c0.315,0.031,0.613,0.06,0.917,0.09	c-0.14-1.129-0.276-2.135-0.405-2.945c-1.193,1.188-2.865,3.051-5.546,4.128c-2.739,1.285-8.335,1.58-8.911,1.604l2.998,15.524	C235.663,262.069,237.75,260.807,239.788,259.476z M278.753,314.407c-0.506,6.341-6.236,6.111-6.236,6.111s-1.572-0.304-3.908-0.768	c0,0,0,0,0,0c-0.331-0.066-0.679-0.135-1.038-0.207c0.064,0.013,0.122,0.024,0.185,0.037c-2.685-0.536-6.134-1.237-9.379-1.931	c0.026-0.173,0.054-0.359,0.084-0.562c0.01-0.07,0.02-0.141,0.03-0.214c0.024-0.167,0.047-0.337,0.071-0.518	c0.012-0.088,0.022-0.177,0.034-0.268c0.023-0.182,0.044-0.366,0.066-0.559c0.011-0.097,0.021-0.193,0.031-0.293	c0.02-0.196,0.038-0.394,0.055-0.598c0.009-0.103,0.017-0.205,0.024-0.309c0.015-0.209,0.028-0.419,0.038-0.632	c0.005-0.103,0.01-0.205,0.014-0.309c0.008-0.218,0.012-0.437,0.014-0.657c0.001-0.102,0.002-0.203,0.001-0.305	c-0.002-0.221-0.009-0.441-0.019-0.661c-0.004-0.1-0.008-0.2-0.014-0.3c-0.014-0.22-0.035-0.435-0.059-0.65	c-0.008-0.071-0.011-0.144-0.02-0.215c-0.001,0.001-0.003,0.002-0.004,0.003c-0.2-1.559-0.688-2.939-1.706-3.682	c-1.509-1.102-6.178-1.307-9.267-0.951c-2.561,0.295-3.802-2.495-3.802-2.495l-2.97-30.772c0,0-5.315,2.406-5.219,9.221	c0.068,4.866,1.009,9.882-3.397,13.4c-3.588,2.866-0.562,26.915,8.285,29.86c6.295,2.095,10.295,2.16,12.859,1.266	c0.839,2.56,15.34,45.943,37.579,53.495c21.136,7.178,30.567-12.074,30.567-12.074l1.069-15.208c0,0-13.782-13.188-26.88-18.119	L278.753,314.407z"/><path id="color_x5F_4" fill="#00cec9" d="M435.746,215.556c-8.638,11.316-16.51,15.638-20.875,17.27l0.16-2.856	c3.32-3.864,6.038-8.25,7.893-12.97c0,0,12.135,1.035,12.586-16.631c0.209-8.176-9.658-9.644-14.95-1.929	c-0.794,1.157-8.068,11.542-8.319,3.426c-0.526-17.042-4.261-25.63-16.878-35.406c-10.858,1.642-30.423,3.83-42.984,0.716	c0,0,13.775-4.528,23.191-10.035c-2.961-0.781-6.133-1.43-9.537-1.931c-10.334-1.522-15.792,3.866-18.55,8.613l-0.171-0.188	c-8.76,9.135-7.386,25.35-7.386,25.35s-13.244-4.206-13.494-30.251c-0.152-15.852,13.077-22.764,13.077-22.764	s-2.954-2.238-3.95-5.661c-1.383-4.754-0.701-10.936,1.644-8.939c8.303,7.072,17.576,4.587,17.576,4.587s16.568-13.487,62.156-5.527	c12.74,2.224,18.549,13.716,19.525,14.175C465.341,148.183,445.665,202.562,435.746,215.556z M186.046,412.951h31.96l6.459-35.064	h-45.199L186.046,412.951z M203.051,101.389c-17.781-8.133-37.034,7.282-37.034,7.282s-17.878,1.159-17.146,23.987	c0.366,11.414,4.258,19.7,4.258,19.7l2.204,0.206c0.599-0.15,1.193-0.231,1.74-0.265c-0.846-6.256-0.807-10.818-0.807-10.818	c-0.409-23.856,14.497-28.098,19.054-12.088c6.711,23.578,25.471,27.463,24.074,22.258c-1.821-6.787-1.614-14.631-1.614-14.631	c3.422,10.68,16.275,14.721,14.512,11.342c-1.762-3.379-2.232-10.871-2.232-10.871l9.4,11.43c-0.148,3.136-0.601,6.34-1.332,9.5	l0.579,0.054c0.844-0.129,1.994-0.163,3.015,0.281l1.659,0.155C235.138,128.708,225.169,111.505,203.051,101.389z M273.42,313.333	c0,0,0.315,5.997-4.81,6.417c-2.777-0.552-6.635-1.332-10.231-2.101c0.391-2.572,1.291-8.791-1.359-10.728	c-1.509-1.102-6.178-1.307-9.267-0.951c-2.561,0.295-3.802-2.495-3.802-2.495l-0.352-3.652c-1.168-13.55-3.447-39.228-4.392-44.697	c-0.46-2.66,0.074-4.716,0.946-6.274c0.75-0.729,1.911-1.383,3.636-1.226c3.632,0.331,18.455,2.272,18.455,2.272	s5.026,0.508,6.243,6.594C269.704,262.578,273.42,313.333,273.42,313.333z M248.937,255.871c-0.648-1.894-2.182-2.888-3.427-2.219	s-1.728,2.746-1.08,4.64c0.648,1.894,2.182,2.888,3.427,2.219S249.585,257.765,248.937,255.871z"/><path id="color_x5F_3" fill="#e84393" d="M233.267,263.384c-5.094,2.784-10.458,5.135-16.057,6.972	c2.858,9.081,8.54,14.275,8.54,14.275c-13.375,2.849-22.592-5.386-26.707-10.225c-3.894,0.479-7.85,0.755-11.873,0.755	c-9.862,0-19.376-1.486-28.334-4.24c0.39-11.682,0.225-17.586,0.225-17.586l-3.564-2.139c-0.78-8.135-4.357-20.427-7.502-30.068	c1.742-5.657,3.291-10.473,4.059-12.334c2.373-5.751,7.988-8.924,7.988-8.924c4.545-2.673,9.523-3.648,9.523-3.648	s4.917,10.005,21.108,8.331c12.846-1.328,13.545-5.346,13.714-10.377c0,0,4.575-0.365,10.393,0.697	c1.243,0.169,9.952,1.548,13.61,7.415c3.944,6.324,18.535,37.182,18.535,37.182s-3.462,7.382-16.397,7.921l-0.529,0.05	C231.143,252.934,232.25,258.347,233.267,263.384z M245.51,253.651c-1.245,0.668-1.728,2.746-1.08,4.64	c0.648,1.894,2.182,2.888,3.427,2.219s1.728-2.746,1.08-4.64S246.755,252.983,245.51,253.651z M381.234,476.235l1.553,21.735h63.36	v-23.067C423.734,477.643,401.178,477.544,381.234,476.235z M321.246,497.97h51.758l0.375-22.322	c-23.434-1.958-42.409-5.388-51.904-7.323L321.246,497.97z"/><path id="color_x5F_2" fill="#fbc02d" d="M283.448,178.883c0,26.105-10.506,49.454-27.379,66.79	c-2.626-0.259-5.733-0.549-10.455-1.01c-0.059-0.478-0.713-2.614-0.475-2.733c0.286-0.143,1.784-2.46,1.784-2.46	s-14.591-30.858-18.535-37.182c-3.658-5.866-12.367-7.245-13.61-7.415c-5.818-1.062-10.393-0.697-10.393-0.697l-6.735-0.14	l-0.696-7.544c6.738-2.559,12.031-7.789,15.789-14.239c4.947,2.477,11.496-2.953,11.308-9.18c-0.078-2.586-1.116-3.794-2.341-4.321	l1.673,0.156c11.755-30.201,1.785-47.404-20.332-57.52c-17.781-8.133-37.034,7.282-37.034,7.282s-17.878,1.159-17.146,23.987	c0.366,11.414,4.258,19.7,4.258,19.7l2.199,0.205c-2.324,0.582-4.714,2.247-4.638,6.655c0.105,6.111,6.401,7.775,9.955,8.228	c2.969,8.213,7.952,15.934,16.31,18.938l-0.349,8.1l-7.044,1.74c0,0-4.979,0.975-9.523,3.648c0,0-5.615,3.173-7.988,8.924	c-0.768,1.861-2.317,6.677-4.059,12.334c-2.71-8.309-5.1-14.649-5.1-14.649c6.163-3.429,5.43-16.371,5.79-20.213	c0.36-3.841,2.5-8.104-1.512-8.667c-3.246-0.456-3.733,7.302-5.113,9.974c-1.933,3.742-2.798,0.815-2.798,0.815	s-0.777-15.498-5.448-19.509c-4.671-4.011-11.304,1.813-14.411,4.508s-3.63,16.937-1.2,24.48c2.43,7.544,7.02,11.811,7.02,11.811	s1.389,23.929,4.689,46.606c-23.672-17.541-39.02-45.679-39.02-77.404c0-53.174,43.106-96.279,96.279-96.279	S283.448,125.71,283.448,178.883z"/><path id="color_x5F_1" fill="#0984e3" d="M527.605,497.008h-80.458v-21.229c2.376-0.298,4.749-0.616,7.115-0.98	c0.508-0.078,0.873-0.528,0.847-1.041c-0.036-0.688-2.175-41.924-3.053-87.336c1.221,1.039,2.537,1.8,3.967,2.162	c2.788,0.707,5.488,1.056,8.065,1.056c6.315,0,11.884-2.099,16.136-6.177c4.017-3.853,6.665-9.318,7.845-15.763	c1.298-4.572,5.215-23.986,1.337-83.318c2.719-1.554,13.258-8.867,14.479-29.37c0.071-1.188,0.149-2.362,0.227-3.522	c0.75-11.256,1.398-20.978-5.65-28.014c-6.492-6.48-15.717-7.67-21.092-5.5c-2.482,1.001-3.928,2.705-3.966,4.673	c-0.076,3.941-1.736,13.999-3.62,22.634c-0.156-3.306-0.464-7.001-1.064-9.678c-0.651-2.905-2.481-4.717-4.894-4.848	c-2.429-0.121-4.73,1.444-5.514,3.744c-1.235,3.624-0.461,18.035-0.345,20.053c-0.075,0.745-0.496,5.462,0.184,10.973	c-2.413-2.3-4.586-3.818-6.416-5.088c-0.486-0.337-0.946-0.656-1.376-0.967c-8.547-6.194-25.628-9.397-32.806-10.516l-2.545-0.688	l0.825-14.731c4.611-1.844,12.3-6.36,20.708-17.375c7.798-10.216,20.062-42.021,14.721-63.878	c-2.157-8.828-6.962-15.066-14.28-18.542c-0.157-0.166-0.518-0.655-0.839-1.09c-2.503-3.395-8.363-11.346-19.034-13.208	c-43.466-7.589-60.703,4.037-62.768,5.588c-1.304,0.279-9.328,1.673-16.488-4.424c-1.162-0.989-2.106-0.562-2.459-0.335	c-2.057,1.331-1.774,6.943-0.794,10.314c0.688,2.369,2.207,4.197,3.244,5.231c-3.351,2.222-12.541,9.544-12.412,22.924	c0.254,26.464,13.622,31.014,14.191,31.194c0.318,0.1,0.665,0.037,0.927-0.172c0.261-0.208,0.4-0.533,0.372-0.865	c-0.01-0.124-0.759-9.852,2.962-18.234c-0.447,5.469-3.409,49.574,15.517,66.954c3.397,3.12,7.17,5.469,11.195,7.027l0.035,3.366	l-6.687,2.439c-1.407,0.231-15.522,2.606-22.434,6.153c-9.544,4.897-17.074,13.615-22.381,25.909	c-3.77,8.732-8.237,17.814-12.403,25.85V134.779c0-0.552-0.447-1-1-1h-32.387c-16.287-30.989-48.798-52.175-86.169-52.175	c-53.64,0-97.279,43.639-97.279,97.279c0,38.324,22.279,71.538,54.562,87.383v145.684h-11.916c-0.552,0-1,0.447-1,1v17.296	c0,0.553,0.448,1,1,1h183.51c-0.723,11.115-1.45,22.951-2.176,35.588c-0.028,0.483,0.294,0.917,0.764,1.03	c0.119,0.029,2.181,0.517,5.835,1.265l-0.216,27.878H109.027c-0.552,0-1,0.447-1,1s0.448,1,1,1h418.578c0.553,0,1-0.447,1-1	S528.158,497.008,527.605,497.008z M445.147,497.008h-61.427l-1.41-19.744c8.184,0.519,16.787,0.834,25.623,0.834	c12.134,0,24.703-0.609,37.214-2.08V497.008z M380.297,477.132l1.42,19.876h-7.696l0.341-20.318	C376.311,476.848,378.291,476.995,380.297,477.132z M460.204,235.148c0.493-1.445,2.009-2.467,3.513-2.392	c1.51,0.082,2.593,1.25,3.051,3.288c1.289,5.745,1.169,16.911,1.168,17.022c-0.006,0.504,0.363,0.933,0.862,1.002	c0.499,0.073,0.972-0.243,1.103-0.729c2.569-9.485,5.397-25.241,5.503-30.651c0.029-1.545,1.713-2.453,2.714-2.857	c4.099-1.656,12.683-1.177,18.932,5.06c6.405,6.394,5.785,15.695,5.066,26.466c-0.077,1.164-0.156,2.343-0.227,3.536	c-1.298,21.796-13.82,27.943-13.943,28.002c-0.375,0.174-0.604,0.561-0.577,0.973c3.906,59.188-0.046,78.898-1.22,83.227	c-0.052,0.484-0.15,0.952-0.306,1.4c-0.009,0.076-0.009,0.154-0.021,0.23c-0.008,0.017-0.013,0.034-0.021,0.05	c-1.214,5.395-3.546,9.968-6.961,13.244c-5.549,5.321-13.269,6.923-22.324,4.625c-11.728-2.973-15.745-37.592-16.069-40.579	c2.917-1.264,6.005-2.053,9.152-2.491c-0.573,6.382-0.844,12.394-0.656,17.583c0.02,0.553,0.489,1.018,1.035,0.963	c0.552-0.02,0.983-0.483,0.963-1.035c-1.045-28.896,12.331-83.839,12.467-84.391c0.06-0.247,0.024-0.507-0.1-0.728	c-4.671-8.314-3.356-21.152-3.343-21.281c0.006-0.055,0.008-0.11,0.004-0.165C459.71,250.082,459.25,237.948,460.204,235.148z M338.849,187.343c-3.273-1.959-11.227-8.758-11.417-28.619c-0.145-15.024,12.414-21.802,12.541-21.869	c0.303-0.159,0.504-0.462,0.532-0.803s-0.119-0.673-0.393-0.879c-0.026-0.021-2.699-2.074-3.593-5.144	c-1.055-3.626-0.7-7.301-0.11-8.007c0.037,0.022,0.086,0.057,0.146,0.109c8.604,7.329,18.084,4.898,18.483,4.792	c0.135-0.036,0.262-0.101,0.37-0.188c0.163-0.132,16.869-13.087,61.355-5.32c9.88,1.725,15.408,9.224,17.769,12.426	c0.768,1.042,1.085,1.473,1.503,1.669c6.798,3.197,11.267,9,13.283,17.25c5.296,21.674-7.671,53.416-14.368,62.189	c-8.292,10.863-15.882,15.148-20.152,16.816c3.693-4.047,6.721-8.71,8.797-13.758c1.442-0.045,4.681-0.462,7.585-3.061	c3.365-3.013,5.158-7.909,5.328-14.552c0.096-3.749-1.747-6.603-4.93-7.634c-3.396-1.101-8.375,0.054-11.845,5.113	c-2.879,4.194-5.383,6.258-6.006,6.062c-0.085-0.025-0.438-0.477-0.488-2.101c-0.546-17.674-4.742-26.462-17.267-36.166	c-0.216-0.167-0.49-0.237-0.762-0.198c-9.615,1.454-26.693,3.421-39.065,1.444c4.738-1.722,13.403-5.095,19.927-8.91	c0.349-0.204,0.541-0.598,0.486-0.999s-0.346-0.729-0.736-0.832c-3.032-0.8-6.277-1.458-9.646-1.954	c-10.362-1.528-16.092,3.621-19.13,8.468c-0.168,0.046-0.328,0.12-0.458,0.255C339.229,170.618,338.752,182.832,338.849,187.343z M345.904,170.449c0.123-0.634,2.975-14.503,16.667-14.503c1.041,0,2.146,0.081,3.315,0.252c2.403,0.354,4.741,0.792,6.979,1.306	c-9.036,4.83-20.674,8.679-20.8,8.721c-0.423,0.14-0.703,0.542-0.687,0.987c0.017,0.446,0.326,0.826,0.759,0.934	c12.608,3.125,32.139,0.98,42.948-0.634c11.843,9.271,15.629,17.375,16.154,34.384c0.026,0.847,0.106,3.425,1.925,3.958	c2.419,0.706,5.805-3.332,8.218-6.849c0,0,0,0,0,0c2.872-4.186,6.982-5.184,9.579-4.342c2.327,0.754,3.62,2.825,3.547,5.681	c-0.154,6.05-1.713,10.453-4.634,13.087c-3.136,2.827-6.835,2.576-6.867,2.573c-0.435-0.039-0.854,0.22-1.016,0.631	c-5.284,13.449-17.564,24.186-31.286,27.352c-11.041,2.547-21.678-0.237-29.953-7.837	C341.719,218.668,345.874,170.832,345.904,170.449z M371.981,249.65c0.398-0.146,0.662-0.526,0.657-0.95l-0.035-3.353	c3.264,1.03,6.674,1.561,10.174,1.561c2.749,0,5.553-0.323,8.38-0.975c7.614-1.757,14.79-5.754,20.685-11.206	c0.406-0.068,1.069-0.206,1.948-0.47l-0.824,14.709c-0.014,0.254,0.073,0.489,0.223,0.676c0.071,0.426,0.398,0.776,0.848,0.831	c0.053,0.007,1.243,0.156,3.174,0.462l4.022,1.087c-4.511,3.572-19.516,13.811-41.097,11.804	c-7.497-0.697-12.503-2.795-14.476-6.068c-1.408-2.334-0.943-4.659-0.675-5.558L371.981,249.65z M304.726,135.779v176.41	c-4.679,8.866-8.737,16.025-10.627,19.312l-2.074-2.433V189.261c0-0.552-0.448-1-1-1h-7.026c0.296-3.092,0.45-6.221,0.45-9.377	c0-0.629-0.012-1.256-0.024-1.883h6.6c0.552,0,1-0.448,1-1v-26.75c0-0.552-0.448-1-1-1h-11.522	c-1.43-4.298-3.152-8.462-5.143-12.471H304.726z M317.346,411.951h-10.621V381.49c6.405-1.916,10.952-6.219,13.656-9.541	C319.396,383.878,318.379,397.169,317.346,411.951z M186.871,411.951l-6.393-33.063h42.786l-6.091,33.063H186.871z M130.831,255.672	c-3.207-22.243-4.599-45.806-4.613-46.049c-0.015-0.257-0.129-0.499-0.317-0.674c-0.044-0.041-4.426-4.173-6.75-11.385	c-2.515-7.808-1.605-21.242,0.903-23.418l0.08-0.069c2.938-2.547,9.049-7.85,13.025-4.436c3.562,3.058,4.889,14.608,5.101,18.8	c0.004,0.079,0.017,0.157,0.04,0.233c0.083,0.279,0.558,1.679,1.815,1.798c1.343,0.134,2.258-1.331,2.831-2.438	c0.481-0.932,0.84-2.317,1.22-3.783c0.639-2.468,1.525-5.841,2.866-5.659c0.944,0.132,1.188,0.476,1.268,0.589	c0.53,0.746,0.188,2.466-0.144,4.129c-0.186,0.933-0.377,1.898-0.468,2.865c-0.062,0.655-0.092,1.547-0.127,2.58	c-0.17,4.982-0.488,14.256-5.153,16.853c-0.425,0.237-0.618,0.745-0.458,1.204c0.121,0.348,12.166,34.962,13.59,49.816	c0.053,0.549,0.534,0.949,1.091,0.9c0.389-0.037,0.695-0.298,0.828-0.64c-0.044,4.257-0.094,8.452-0.153,12.477	C147.719,266.192,138.805,261.537,130.831,255.672z M159.148,206.287c0.197,0,0.802-0.267,0.762-1.345	c0.041-2.185,0.088-3.591,0.143-3.904c0.251-1.209,4.662-2.996,8.625-3.907c0.073-0.017,0.132-0.058,0.197-0.089	c0.998,1.714,5.823,8.704,18.199,8.703c1.165,0,2.398-0.062,3.701-0.197c12.528-1.295,14.261-5.296,14.57-10.463	c1.69-0.143,5.641-0.33,8.749,0.605c0.125,0.079,0.263,0.139,0.419,0.157c0.006,0.001,0.057,0.007,0.138,0.018	c0.591,0.212,1.141,0.47,1.627,0.785c0.315,0.295,0.727,1.186,1.214,2.555c0.381,0.843,0.777,0.838,1.093,0.754	c0.316-0.084,1.158-0.267,0.81-1.243c-0.288-0.817-0.537-1.442-0.755-1.928c2.985,0.937,6.841,2.728,8.9,6.029	c3.604,5.78,16.411,32.718,18.258,36.613c-0.899,1.436-4.756,6.415-15.004,6.94c-0.166-0.793-0.33-1.582-0.497-2.377	c-4.007-19.035-6.736-30.59-8.624-37.643c-0.236-0.51-0.982-0.791-1.394-0.688c-0.248,0.062-0.624,0.713-0.503,1.281	c3.32,12.583,8.083,34.721,12.377,55.928c-4.825,2.581-9.915,4.782-15.254,6.535c-0.52,0.171-0.806,0.728-0.642,1.25	c2.077,6.596,5.565,11.166,7.476,13.317c-11.789,1.662-19.991-5.586-23.928-10.215c-0.191-0.225-0.47-0.352-0.762-0.352	c-0.041,0-0.081,0.002-0.122,0.007c-4.088,0.503-7.932,0.748-11.751,0.748c-9.694,0-19.053-1.459-27.874-4.163	c0.193-12.921,0.296-27.715,0.383-40.318c0.036-5.181,0.071-10.254,0.11-14.661c0.006-0.653-0.105-1.515-0.996-1.604	c-0.581-0.058-0.994,0.396-0.998,0.891c-0.038,4.168-0.074,9.283-0.116,15.36c-0.046,6.735-0.098,14.098-0.164,21.464	c-0.271-0.134-0.547-0.262-0.827-0.386c-1.613-8.637-4.92-20.055-7.779-29.186c1.751-5.691,3.307-10.537,4.068-12.383	c1.357-3.289,3.529-5.352,4.991-6.45c-0.021,0.66-0.041,1.464-0.059,2.42C158.257,206.376,158.605,206.287,159.148,206.287z M218.915,159.458c0.833-0.124,1.982-0.145,2.835,0.44c0.816,0.56,1.254,1.639,1.302,3.207c0.097,3.214-1.896,6.516-4.845,8.027	c-0.896,0.459-2.416,0.988-4.043,0.576C216.21,167.987,217.824,163.837,218.915,159.458z M222.62,158.096	c-1.048-0.617-2.237-0.75-3.24-0.696c0.573-2.752,0.946-5.577,1.081-8.434c0.012-0.248-0.069-0.491-0.227-0.683l-9.4-11.43	c-0.275-0.334-0.735-0.454-1.139-0.295c-0.403,0.159-0.659,0.56-0.631,0.993c0.019,0.306,0.477,7.329,2.19,10.961	c-0.563-0.056-1.573-0.309-2.944-0.982c-3.505-1.722-7.862-5.467-9.576-10.818c-0.148-0.464-0.604-0.751-1.094-0.685	c-0.482,0.069-0.845,0.476-0.858,0.963c-0.009,0.326-0.189,8.068,1.648,14.917c0.095,0.353,0.082,0.535-0.445,0.681	c-3.25,0.896-16.349-4.667-21.701-23.472c-2.37-8.326-7.079-10.717-10.689-10.185c-5.319,0.789-10.575,8.071-10.327,22.538	c-0.004,0.5-0.011,4.49,0.652,9.953c-0.617,0.099-1.256,0.26-1.884,0.506c-0.045-0.097-3.809-8.262-4.163-19.305	c-0.691-21.547,15.522-22.909,16.212-22.957c0.204-0.014,0.399-0.09,0.559-0.217c0.188-0.15,18.968-14.94,35.993-7.154	C226.657,113.285,233.01,131.026,222.62,158.096z M153.372,154.601c0.816-0.69,1.838-1.032,2.81-1.194	c0.56,3.904,1.468,8.37,2.921,12.787c-3.245-0.673-7.334-2.426-7.412-6.994C151.655,157.122,152.22,155.575,153.372,154.601z M157.267,141.462c-0.227-13.208,4.31-19.912,8.62-20.551c0.242-0.036,0.483-0.054,0.722-0.054c3.254,0,6.179,3.289,7.75,8.808	c5.762,20.242,19.793,26.053,24.158,24.852c1.518-0.419,2.241-1.647,1.844-3.127c-0.887-3.307-1.282-6.904-1.455-9.669	c3.423,5.349,8.952,8.287,11.8,8.737c1.195,0.19,2.025-0.032,2.472-0.652c0.216-0.3,0.503-0.948,0.002-1.908	c-0.927-1.776-1.481-4.856-1.789-7.218l7.052,8.575c-0.755,13.77-7.013,26.76-16.007,33.174c-6.869,4.899-14.936,6.042-23.976,3.396	C157.203,179.607,157.264,141.868,157.267,141.462z M177.605,194.542l0.404-6.768c3.247,0.939,6.419,1.41,9.479,1.41	c2.902,0,5.702-0.424,8.369-1.259l0.802,6.24c0.063,0.491,0.476,0.862,0.971,0.873l5.717,0.119	c-0.203,3.919-1.217,7.208-12.778,8.404c-12.237,1.265-17.662-4.269-19.425-6.697l5.704-1.409	C177.271,195.349,177.579,194.979,177.605,194.542z M280.146,150.25h9.879V175h-5.66	C284.025,166.422,282.575,158.124,280.146,150.25z M283.783,190.261h6.241v136.462l-10.28-12.058	c0.035-0.373,0.059-0.755,0.059-1.156c0.002-7.201-4.07-52.83-4.288-55.257c-0.016-0.807-0.35-10.291-7.029-11.589	c-3.659-0.712-5.523-0.992-10.118-1.464C272.266,230.293,281.346,211.152,283.783,190.261z M268.104,248.626	c5.232,1.018,5.411,9.605,5.412,9.692c0,0.025,0.002,0.051,0.004,0.077c0.043,0.479,4.285,47.963,4.283,55.115	c0,2.038-0.536,3.589-1.592,4.61c-1.362,1.316-3.237,1.396-3.591,1.398c-0.098-0.019-0.285-0.055-0.531-0.103	c0.181-0.151,0.354-0.315,0.516-0.494c1.977-2.192,1.822-5.502,1.813-5.661c-0.152-2.074-3.734-50.887-4.95-56.963	c-1.077-5.387-5.13-7.191-7.094-7.389c-0.606-0.079-14.884-1.947-18.495-2.276c-0.16-0.014-0.302,0-0.456-0.003	c0.52-0.384,0.97-0.634,1.223-0.761l6.635,0.644C261.535,247.503,263.111,247.655,268.104,248.626z M258.133,306.941	c-1.679-1.737-4.56-2.37-9.064-2.001c-1.392,0.127-2.832-0.591-4.171-1.666c-1.025-12.018-3.656-42.237-4.706-48.318	c-0.4-2.313,0.027-4.115,0.756-5.491c0.588-0.522,1.47-0.961,2.749-0.841c3.571,0.325,18.269,2.248,18.44,2.27	c0.176,0.02,4.32,0.549,5.369,5.796c1.191,5.955,4.879,56.21,4.915,56.698c0.001,0.026,0.102,2.639-1.302,4.194	c-0.612,0.678-1.428,1.049-2.462,1.157c-2.543-0.506-5.945-1.194-9.216-1.886c0.009-0.077,0.017-0.157,0.026-0.234	C259.909,312.808,260.326,309.208,258.133,306.941z M254.513,324.864c-2.597,1.71-7.156,1.5-13.548-0.629	c-4.419-1.471-7.293-9.322-8.412-15.6c-1.24-6.959-0.544-11.748,0.435-12.53c4.18-3.338,4.005-7.823,3.835-12.16	c-0.026-0.679-0.053-1.359-0.062-2.036c-0.081-5.756,3.169-7.409,3.541-7.579c0.89,9.382,1.817,19.959,2.407,26.812	c-1.425-1.633-2.565-3.401-3.144-4.449c-0.268-0.483-0.876-0.66-1.359-0.392c-0.483,0.267-0.659,0.875-0.392,1.358	c0.22,0.399,5.459,9.732,11.419,9.274c3.808-0.316,6.25,0.144,7.462,1.396c1.535,1.587,1.187,4.585,0.785,8.057	c-0.081,0.694-0.163,1.402-0.232,2.117l-0.034,0.39C257.073,320.556,256.837,323.334,254.513,324.864z M233.98,261.873	c-0.877-4.333-1.809-8.892-2.775-13.531c4.362-0.263,7.66-1.277,10.117-2.526c-1.888,1.742-3.914,4.776-3.101,9.481	c0.14,0.812,0.312,2.095,0.504,3.712C237.175,260.005,235.595,260.963,233.98,261.873z M157.468,255.885	c-0.094-0.862-0.217-1.778-0.369-2.743c0.137,0.073,0.26,0.156,0.393,0.232C157.485,254.212,157.477,255.049,157.468,255.885z M161.154,272.625c8.284,2.302,17.008,3.538,26.015,3.538c3.736,0,7.491-0.229,11.464-0.698	c3.889,4.443,11.249,10.758,21.646,10.758c1.803,0,3.696-0.19,5.679-0.612c0.366-0.078,0.657-0.354,0.756-0.715	c0.099-0.361-0.013-0.747-0.289-1c-0.053-0.049-5.134-4.78-7.953-12.905c7.317-2.484,14.171-5.794,20.507-9.772	c0.343,3.088,0.734,6.975,1.14,11.195c-0.172-0.027-0.349-0.026-0.522,0.044c-0.202,0.081-4.939,2.065-4.835,9.482	c0.01,0.694,0.037,1.391,0.064,2.085c0.157,4.018,0.305,7.812-3.085,10.52c-2.255,1.801-2.205,8.551-1.155,14.443	c0.618,3.467,3.146,14.949,9.749,17.147c3.715,1.236,6.906,1.854,9.552,1.854c1.087,0,2.071-0.115,2.973-0.324	c2.342,6.915,16.098,45.007,37.166,52.939v16.877h-68.152l3.576-19.411c0.054-0.293-0.025-0.594-0.215-0.821	c-0.19-0.229-0.472-0.36-0.769-0.36h-1.259c5.589-14.907-0.026-24.412-0.273-24.818c-0.242-0.396-0.725-0.577-1.166-0.43	c-3.929,1.289-7.098,3.467-9.655,6.011c-1.686-5.349-4.984-11.09-11.101-16.321c-0.39-0.332-0.969-0.318-1.341,0.037	c-0.414,0.395-9.327,8.998-10.462,16.592c-3.588-4.394-6.905-6.528-7.168-6.693c-0.261-0.164-0.582-0.198-0.869-0.095	c-0.289,0.104-0.514,0.334-0.611,0.625c-4.694,14.081-1.592,22.258-0.067,25.092h-1.225c-0.298,0-0.582,0.134-0.771,0.363	c-0.19,0.23-0.267,0.533-0.21,0.826l3.752,19.403h-20.882V272.625z M182.82,376.888c-0.017-0.027-0.021-0.059-0.041-0.085	c-0.057-0.075-5.517-7.474-0.738-23.076c2.957,2.282,11.204,9.718,13.71,23.161H182.82z M191.02,360.358	c0.054-0.134,0.086-0.278,0.077-0.432c-0.377-6.037,7.046-14.145,9.311-16.468c15.847,14.165,10.733,31.392,10.054,33.43h-12.699	c-0.002-0.045,0.011-0.087,0.003-0.133C196.507,369.79,193.822,364.374,191.02,360.358z M212.748,359.936	c2.325-2.545,5.226-4.765,8.838-6.114c1.134,2.44,4.244,10.971-0.529,23.066h-8.516C213.181,374.582,214.64,367.872,212.748,359.936	z M221.504,399.48h69.521c0.552,0,1-0.447,1-1v-17.188c2.83,0.838,5.466,1.201,7.911,1.201c1.693,0,3.282-0.19,4.79-0.5v29.958	h-85.519L221.504,399.48z M320.692,368.214c-2.851,4.442-12.413,16.516-29.284,10.784c-20.367-6.917-34.393-45.412-36.659-52.001	c0.297-0.144,0.596-0.287,0.864-0.463c3.134-2.063,3.444-5.715,3.593-7.47l0.019-0.213c6.142,1.3,12.64,2.558,13.102,2.647	c0.048,0.01,0.098,0.016,0.147,0.018c0.013,0.001,0.056,0.002,0.125,0.002c0.589,0,3.072-0.114,4.979-1.939	c0.71-0.68,1.247-1.509,1.618-2.474l32.749,38.411c0.197,0.232,0.479,0.352,0.761,0.352c0.229,0,0.461-0.078,0.648-0.239	c0.421-0.358,0.471-0.989,0.112-1.409l-15.153-17.773c4.998,1.991,13.478,6.457,22.752,16.087c0.196,0.204,0.459,0.307,0.721,0.307	c0.085,0,0.167-0.026,0.249-0.047C321.597,357.644,321.148,362.789,320.692,368.214z M91.89,178.883	c0-52.537,42.742-95.279,95.279-95.279s95.279,42.742,95.279,95.279c0,25.295-9.91,48.733-26.598,66.063	c-1.27-0.125-2.698-0.263-4.377-0.425l-5.606-0.544c-0.067-0.384-0.132-0.77-0.201-1.152c-0.004-0.024-0.02-0.042-0.026-0.066	c1.511-1.496,2.128-2.738,2.188-2.864c0.127-0.27,0.126-0.583-0.001-0.852c-0.597-1.262-14.661-30.982-18.59-37.284	c-3.849-6.173-12.65-7.646-14.249-7.866c-4.366-1.424-9.966-0.802-10.651-0.717l-5.804-0.121l-0.748-5.819	c2.029-0.81,3.973-1.866,5.814-3.179c3.666-2.614,6.895-6.259,9.527-10.57c0.717,0.249,1.465,0.386,2.234,0.386	c1.23,0,2.506-0.319,3.76-0.962c3.611-1.852,6.05-5.909,5.931-9.868c-0.043-1.415-0.351-2.578-0.916-3.481	c0.074-0.085,0.138-0.18,0.181-0.291c10.951-28.136,4.131-47.368-20.848-58.792c-17.281-7.906-35.473,5.402-37.842,7.229	c-2.505,0.315-18.452,3.193-17.753,24.982c0.368,11.488,4.19,19.747,4.352,20.093c0.021,0.046,0.059,0.076,0.086,0.116	c-0.073,0.057-0.15,0.106-0.222,0.167c-1.638,1.38-2.445,3.456-2.399,6.168c0.103,6.002,5.627,8.421,10.173,9.133	c3.005,8.032,7.973,15.541,16.183,18.738l-0.393,6.583l-6.33,1.563c-0.097,0.024-0.177,0.081-0.261,0.131	c-0.229-0.179-0.526-0.268-0.832-0.201c-2.093,0.48-8.695,2.199-9.961,4.948c-1.203,0.673-5.017,3.132-7.142,8.284	c-0.659,1.597-1.869,5.287-3.279,9.801c-1.733-5.415-3.172-9.634-3.752-11.315c4.966-3.564,5.286-12.937,5.462-18.077	c0.034-1.001,0.064-1.865,0.12-2.461c0.081-0.864,0.263-1.778,0.439-2.662c0.433-2.175,0.841-4.229-0.188-5.678	c-0.546-0.769-1.428-1.244-2.62-1.411c-3.123-0.442-4.207,3.763-5.081,7.138c-0.351,1.354-0.682,2.634-1.061,3.367	c-0.387,0.749-0.672,1.098-0.834,1.256c-0.031-0.055-0.061-0.117-0.085-0.177c-0.096-1.704-1.043-15.999-5.787-20.072	c-5.285-4.538-12.278,1.528-15.639,4.442l-0.08,0.069c-3.597,3.121-3.962,17.888-1.496,25.542	c2.154,6.685,5.913,10.846,6.997,11.948c0.189,3.057,1.521,23.679,4.322,43.834C106.256,236.504,91.89,209.341,91.89,178.883z M146.452,267.219c4.089,1.892,8.331,3.508,12.702,4.825V398.48c0,0.553,0.448,1,1,1h22.269l2.411,12.471h-38.381V267.219z M133.537,429.247v-15.296h11.916h160.273h11.482c-0.342,4.934-0.686,10.03-1.031,15.296H133.537z M333.141,277.685	c0.119-0.539-0.221-1.073-0.76-1.192c-0.545-0.121-1.073,0.221-1.193,0.759c-0.057,0.259-3.897,18.132-8.974,73.6	c-11.936-12.28-22.469-16.282-26.486-17.439l-0.252-0.296c3.312-5.738,16.409-28.776,25.489-49.809	c5.118-11.857,12.338-20.243,21.458-24.923c5.547-2.846,16.414-4.987,20.411-5.708c-0.253,1.481-0.286,3.771,1.094,6.082	c2.336,3.914,7.728,6.29,16.023,7.061c1.953,0.182,3.853,0.266,5.699,0.266c23.521-0.001,38.219-13.653,38.375-13.802	c0.032-0.03,0.054-0.067,0.081-0.1c8.072,1.638,19.015,4.516,25.078,8.91c0.44,0.319,0.911,0.646,1.409,0.992	c2.243,1.556,5.012,3.479,8.12,6.876c0.545,2.617,1.383,5.265,2.657,7.637c-0.946,3.934-8.858,37.324-11.575,64.881	c-4.181,0.552-8.298,1.691-12.119,3.68c-0.058-1.141-0.193-2.768-0.414-5.104c-0.438-4.639-1.114-10.546-1.905-16.633	c-1.228-9.446-3.748-27.111-6.831-39.285c-0.136-0.536-0.681-0.86-1.215-0.724c-0.536,0.135-0.86,0.679-0.725,1.215	c4.936,19.484,9.126,56.903,9.127,61.747c-0.184,0.268-0.232,0.616-0.107,0.935c0.317,0.807,1.01,0.82,1.333,0.718	c0.3-0.097,0.518-0.167,0.644-0.538c0.313-0.179,0.633-0.34,0.952-0.506c0.565,4.958,3.531,27.565,11.482,37.332	c0.785,42.695,2.723,82.206,3.048,88.643c-62.398,9.367-129.062-5.014-137.15-6.85C324.438,318.22,333.054,278.074,333.141,277.685z M322.466,469.532c9.744,1.934,27.816,5.097,49.898,6.99l-0.344,20.485h-49.767L322.466,469.532z M101.489,498.008	c0,0.553-0.448,1-1,1H76.188c-0.552,0-1-0.447-1-1s0.448-1,1-1h24.301C101.042,497.008,101.489,497.455,101.489,498.008z M429.805,144.427c-0.162-0.528,0.135-1.087,0.663-1.249c4.482-1.374,8.537,1.774,8.707,1.908c0.434,0.342,0.508,0.971,0.166,1.405	c-0.197,0.25-0.49,0.38-0.786,0.38c-0.216,0-0.434-0.07-0.616-0.213c-0.034-0.027-3.426-2.629-6.885-1.568	C430.522,145.251,429.966,144.954,429.805,144.427z M420.691,135.909c0.08-0.545,0.584-0.928,1.135-0.843	c3.973,0.586,5.738,5.833,5.812,6.056c0.172,0.524-0.113,1.088-0.637,1.261c-0.104,0.035-0.21,0.051-0.313,0.051	c-0.42,0-0.811-0.266-0.949-0.686c-0.396-1.194-1.923-4.367-4.203-4.703C420.988,136.963,420.61,136.455,420.691,135.909z M247.388,252.649c-0.792-0.311-1.626-0.268-2.351,0.122c-1.683,0.904-2.365,3.471-1.553,5.845c0.482,1.408,1.392,2.464,2.496,2.898	c0.35,0.137,0.707,0.205,1.06,0.205c0.447,0,0.886-0.109,1.291-0.327c1.683-0.904,2.365-3.471,1.553-5.845	C249.401,254.139,248.492,253.083,247.388,252.649z M247.384,259.63c-0.208,0.111-0.427,0.119-0.673,0.021	c-0.423-0.166-0.996-0.696-1.334-1.684c-0.53-1.548-0.105-3.053,0.607-3.436c0.208-0.11,0.427-0.118,0.673-0.021	c0.423,0.166,0.996,0.696,1.334,1.684C248.521,257.742,248.096,259.247,247.384,259.63z"/></svg>